<svg preserveAspectRatio="none" width="100%" height="100%" overflow="visible" style="display: block;" viewBox="0 0 300 47" fill="none" xmlns="http://www.w3.org/2000/svg">
<g id="Frame 2117133574" clip-path="url(#clip0_0_4)">
<path id="Rectangle 520" d="M-3.49996 47L3.6175 46.9282C13.2364 46.8311 21.9464 41.2238 26.0168 32.508L34.4636 14.4214C38.5725 5.62301 47.4046 -3.14374e-05 57.1151 -3.14374e-05L239.254 -3.14374e-05C248.179 -3.14374e-05 256.427 4.75753 260.895 12.483L273.64 34.5169C278.108 42.2424 286.356 47 295.28 47H303.474V216.848H-3.25712L-3.49996 47Z" fill="var(--fill-0, #F5F9FC)"/>
<g id="a" clip-path="url(#clip1_0_4)">
<path id="Vector" d="M168.146 12.0189C163.638 11.7727 159.193 13.9945 156.99 18.3898H161.989C163.283 17.0824 165.181 16.223 167.583 16.3389C170.556 16.4828 172.542 19.1246 171.878 22.3352C171.215 25.5458 167.894 28.1954 164.771 28.1954C164.598 28.1954 164.429 28.1867 164.262 28.1703V32.8534H161.636C162.307 33.0137 163.026 33.0996 163.788 33.0996C169.45 33.0996 175.013 28.3808 176.217 22.5592C177.421 16.7377 173.799 12.3279 168.146 12.0189Z" fill="var(--fill-0, #000033)"/>
<path id="Vector_2" d="M164.123 36.6023H159.624L163.14 20.8188H167.639L164.123 36.6023Z" fill="var(--fill-0, #000033)"/>
<path id="Vector_3" d="M150.596 36.9535C147.894 36.8299 146.808 36.1627 145.899 35.1566L144.92 39.5336C146.844 40.7232 149.278 40.8033 150.831 40.5726C154.543 40.0212 157.074 36.9255 157.755 34.1417C155.929 36.1521 153.221 37.0742 150.595 36.9535H150.596Z" fill="var(--fill-0, #000033)"/>
<path id="Vector_4" d="M160.9 20.657H156.401L154.838 27.7164C154.838 27.7164 154.128 31.5807 151.136 31.2485C150.728 31.2031 149.506 30.6334 149.757 29.1242L151.657 20.6232H147.157L145.538 27.9433C145.509 28.0505 145.483 28.1577 145.46 28.2658C144.695 31.7921 146.934 34.6059 150.46 34.6513C154.773 34.7073 158.396 31.8597 159.188 28.3633H159.197L160.9 20.657Z" fill="var(--fill-0, #000033)"/>
<g id="Group">
<path id="Vector_5" d="M198.157 20.6802C199.729 20.6802 201.064 21.2036 202.036 22.0842L200.707 24.2818L198.363 25.738C198.534 24.3688 197.67 23.465 196.497 23.465C195.324 23.465 194.166 24.3234 193.744 25.4454L191.288 24.2809C192.935 22.1344 195.532 20.6792 198.156 20.6792L198.157 20.6802Z" fill="var(--fill-0, #000033)"/>
<path id="Vector_6" d="M200.526 36.7648H196.026L199.37 21.0325C201.855 21.0325 203.433 23.0467 202.894 25.5321L200.525 36.7648H200.526Z" fill="var(--fill-0, #000033)"/>
<path id="Vector_7" d="M191.295 36.8H186.795L190.285 20.6389H194.784L191.295 36.8Z" fill="var(--fill-0, #000033)"/>
</g>
<path id="Vector_8" d="M104.358 28.9161L102.674 28.0973L102.417 29.2801L104.358 28.9161Z" fill="var(--fill-0, #000033)"/>
<path id="Vector_9" d="M110.722 20.9276C107.471 19.9948 104.334 21.8217 104.334 21.8217H104.338C101.579 23.1735 99.2109 25.8134 98.3409 28.8492C97.076 33.261 99.4542 36.9496 103.649 36.8366C108.329 36.7111 111.484 34.1416 111.484 34.1416C110.711 32.8661 110.929 31.2941 110.929 31.2941C110.104 32.0376 108.621 33.9871 105.087 33.7477C102.813 33.5932 102.2 31.9797 102.606 30.0611L102.622 29.9828C102.622 29.9828 111.707 30.8944 113.308 25.5218C113.663 23.637 113.142 21.6228 110.722 20.9276ZM108.38 23.7451C108.579 23.778 108.751 23.8359 108.9 23.9141C109.384 24.2337 109.935 25.2186 108.987 26.4662C107.908 27.8885 104.228 28.5354 103.016 28.2641L103.137 27.8923C104.272 25.2244 107.024 23.5231 108.38 23.7451Z" fill="var(--fill-0, #000033)"/>
<path id="Vector_10" d="M102.622 29.9828C102.622 29.9828 101.833 32.8844 104.825 33.1538C107.816 33.4232 110.928 31.2806 110.928 31.2806L110.484 34.0422L103.559 35.4703L100.54 32.5059L102.622 29.9809V29.9828Z" fill="var(--fill-0, #000033)"/>
<g id="Group_2">
<path id="Vector_11" d="M136.063 24.5782C136.422 23.6059 138.485 22.8711 139.406 22.8711C142.204 22.8711 143.941 25.5284 144.073 25.8596L144.679 23.0622C143.567 21.7461 141.365 20.6048 138.526 20.6203C132.773 20.6502 131.268 23.8975 131.419 26.325C131.613 29.4631 134.685 29.6698 136.487 30.7155C136.487 30.7155 143.041 30.561 143.041 30.5523C142.719 26.6813 135.017 27.5059 136.065 24.5763L136.063 24.5782Z" fill="var(--fill-0, #000033)"/>
<path id="Vector_12" d="M144.072 25.8585C144.072 25.8585 141.518 23.1471 138.596 23.8211C136.527 24.2981 136.094 26.3277 138.634 27.0683L135.685 26.6541L135.049 23.3643L137.915 21.4013L143.062 21.8793L144.072 25.8594V25.8585Z" fill="var(--fill-0, #000033)"/>
</g>
<path id="Vector_13" d="M102.777 27.1893C102.777 27.1893 108.732 28.4021 109.514 25.1954V27.6566L105.31 29.0934L100.891 29.3445L102.777 27.1883V27.1893Z" fill="var(--fill-0, #000033)"/>
<path id="Vector_14" d="M122.535 20.8209C118.363 20.8209 114.21 24.3762 113.259 28.761C112.308 33.1467 114.919 36.7029 119.091 36.701C119.82 36.701 120.622 36.5523 121.358 36.3331L122.058 33.0607C121.243 33.2538 119.824 33.4585 118.944 32.8464C118.021 32.2062 117.821 30.9471 117.79 29.8946C117.799 29.5296 117.846 29.1501 117.93 28.76C118.464 26.2958 120.366 24.2362 122.424 23.7245L122.409 23.738C123.095 23.512 125.745 23.316 125.078 26.7023L125.568 24.4081C126.498 25.2462 126.936 26.6627 126.7 28.3052H127.574L127.265 29.7478H127.858L127.614 30.9152C127.946 30.2296 128.203 29.5074 128.365 28.76C129.316 24.3743 126.705 20.82 122.533 20.82L122.535 20.8209Z" fill="var(--fill-0, #000033)"/>
<path id="Vector_15" d="M127.379 36.9261H122.879L126.338 20.7477H130.838L127.379 36.9261Z" fill="var(--fill-0, #000033)"/>
<g id="Group_3">
<path id="Vector_16" d="M138.669 33.0729C138.31 34.0452 136.247 34.78 135.326 34.78C132.528 34.78 130.791 32.1227 130.659 31.7915L130.053 34.5888C131.165 35.9049 133.368 37.0462 136.206 37.0308C141.959 37.0009 143.464 33.7536 143.313 31.3261C143.119 28.1879 140.048 27.9813 138.245 26.9356C138.245 26.9356 131.691 27.0901 131.691 27.0988C132.013 30.9698 139.715 30.1452 138.667 33.0748L138.669 33.0729Z" fill="var(--fill-0, #000033)"/>
<path id="Vector_17" d="M130.66 31.7906C130.66 31.7906 133.188 34.3784 136.136 33.828C138.032 33.4736 138.638 31.3214 136.098 30.5807L139.047 30.995L139.684 34.2847L136.818 36.2478L131.67 35.7698L130.66 31.7897V31.7906Z" fill="var(--fill-0, #000033)"/>
</g>
<path id="Vector_18" d="M180.489 31.114L176.006 30.8929L178.222 20.4809H182.75L180.489 31.114Z" fill="var(--fill-0, #000033)"/>
<path id="Vector_19" d="M186.198 32.2602C185.439 33.1901 184.287 33.8119 183.121 33.8119C181.425 33.8119 180.317 32.4949 180.558 30.8273H176.023C175.429 34.3401 177.711 37.0563 181.262 37.0563C182.712 37.0563 184.143 36.9018 185.341 36.2443L186.198 32.2593V32.2602Z" fill="var(--fill-0, #000033)"/>
<path id="Vector_20" d="M180.893 29.1108C180.893 29.1108 179.977 32.6767 183.024 32.9635C185.267 33.175 186.198 32.2606 186.198 32.2606L184.485 34.8223L178.952 35.5407L179.132 31.0854L180.893 29.1108Z" fill="var(--fill-0, #000033)"/>
</g>
</g>
<defs>
<clipPath id="clip0_0_4">
<rect width="300" height="47" fill="white"/>
</clipPath>
<clipPath id="clip1_0_4">
<rect width="105" height="28.676" fill="white" transform="translate(98 12)"/>
</clipPath>
</defs>
</svg>
