<svg preserveAspectRatio="none" width="100%" height="100%" overflow="visible" style="display: block;" viewBox="0 0 300 47" fill="none" xmlns="http://www.w3.org/2000/svg">
<g id="Frame 2117133575" clip-path="url(#clip0_0_30)">
<path id="Rectangle 520" d="M-3.49996 47L3.6175 46.9282C13.2364 46.8311 21.9464 41.2238 26.0168 32.508L34.4636 14.4214C38.5725 5.62301 47.4046 -3.14374e-05 57.1151 -3.14374e-05L239.254 -3.14374e-05C248.179 -3.14374e-05 256.427 4.75753 260.895 12.483L273.64 34.5169C278.108 42.2424 286.356 47 295.28 47H303.474V216.848H-3.25712L-3.49996 47Z" fill="var(--fill-0, #8CC23A)"/>
<g id="Logo">
<path id="Union" d="M210.586 19.5605C211.357 19.5606 212.085 19.6435 212.77 19.8037C213.454 19.9674 214.113 20.2083 214.747 20.5322L214.874 23.918H214.576C214.574 23.9131 214.55 23.8674 214.453 23.624C213.682 21.6572 211.915 19.8039 209.624 20.0342C208.95 20.101 208.375 20.3547 208.004 20.7754C207.219 21.667 207.496 23.0502 208.435 23.7549C208.939 24.1355 209.687 24.4857 210.679 24.8096C211.223 24.9632 211.771 25.1075 212.309 25.2744L212.303 25.2705C213.275 25.5711 214.253 26.0094 214.964 26.7607C215.659 27.4921 215.952 28.4404 215.952 29.499C215.952 30.8849 215.438 31.9138 214.406 32.7988C213.221 33.8173 211.531 34.0211 210.018 34.0479C208.238 34.0779 206.451 33.68 204.801 33.0088C204.761 31.87 204.718 30.1236 204.678 28.9814C204.771 28.9848 204.869 28.9883 204.962 28.9883C205.911 30.9753 207.754 33.6299 210.118 33.5898C211.104 33.5765 212.182 33.1857 212.6 32.2373C212.917 31.516 212.843 30.5675 212.262 29.9932C211.637 29.3822 210.703 29.0181 209.888 28.751C209.427 28.6007 208.966 28.4572 208.502 28.3203C207.293 27.9797 206.344 27.4483 205.65 26.7236C204.958 25.9989 204.611 25.1136 204.611 24.0684C204.612 22.8128 205.126 21.7479 206.157 20.873C207.186 19.9981 208.662 19.5605 210.586 19.5605ZM181.944 19.5273C183.086 19.5273 184.055 19.7077 184.843 20.0684C185.634 20.429 186.235 20.8969 186.65 21.4746C187.064 22.0522 187.271 22.653 187.271 23.2773C187.271 23.8083 187.101 24.2198 186.767 24.5137C186.429 24.8075 185.998 24.9541 185.464 24.9541C184.252 24.9541 183.571 24.0355 183.521 22.8633C183.494 22.2088 183.633 21.5511 183.55 20.9033C183.316 19.9549 182.338 19.8342 181.543 20.1348C180.782 20.422 180.067 21.0701 179.619 21.748C178.958 22.7499 178.561 24.1493 178.561 26.3467C178.561 28.2603 178.995 29.5232 179.736 30.5352C180.475 31.5501 181.613 32.2577 183.153 32.2578C184.078 32.2578 184.829 32.094 185.401 31.7734H185.403C185.975 31.4495 186.526 30.9688 187.061 30.3242L187.358 30.5518C186.867 31.6704 186.105 32.5323 185.08 33.1367C184.055 33.7412 182.779 34.0449 181.44 34.0449C180.1 34.0449 178.882 33.7671 177.786 33.2061C176.691 32.645 175.822 31.8304 175.181 30.7617C174.54 29.6932 174.219 28.3608 174.219 26.8281C174.219 25.2952 174.57 23.9823 175.272 22.8936C175.973 21.805 176.908 20.9703 178.083 20.3926C179.255 19.8182 180.541 19.5274 181.944 19.5273ZM162.807 19.9346C164.066 19.5873 165.512 19.4229 166.815 19.5498C168.204 19.6834 169.61 20.2715 170.428 21.3867C171.353 22.6457 171.38 23.9217 171.373 25.4746C171.367 27.2244 171.356 29.3116 171.35 31.0615C171.346 31.5691 171.42 32.2009 171.83 32.5049C172.194 32.7754 172.686 32.765 173.24 32.3643C173.247 32.3575 173.264 32.3361 173.266 32.334L172.973 32.1006H174.025L173.804 32.7686L173.53 32.5479C172.716 33.6399 171.423 34.1076 170.151 34.0107C168.868 33.9105 167.643 33.0122 167.332 31.7832C166.501 32.8518 165.315 33.6835 163.976 33.9541C163.699 34.0108 163.415 34.0406 163.131 34.0439C162.042 34.0606 160.812 33.7674 160.028 33.0293C159.036 32.1009 158.769 30.5007 159.303 29.2617C159.61 28.5472 160.195 27.973 160.846 27.5322C162.706 26.2765 164.864 26.0226 167.276 25.6318C167.276 24.2192 167.285 22.8059 167.071 21.7139C166.968 21.1863 166.764 20.6719 166.477 20.3848C166.006 19.9141 164.994 19.8004 164.369 20.2812C163.852 20.682 163.674 21.5039 163.591 22.1484C163.507 22.7896 163.475 23.4681 163.131 24.0225C162.85 24.4766 162.366 24.8067 161.831 24.8936C161.3 24.9803 160.726 24.8169 160.332 24.4531C159.581 23.7619 159.617 22.5158 160.178 21.6709C160.752 20.8093 161.815 20.2084 162.807 19.9346ZM192.865 19.9346C194.124 19.5872 195.571 19.4229 196.873 19.5498C198.262 19.6834 199.668 20.2715 200.486 21.3867C201.412 22.6457 201.438 23.9217 201.432 25.4746C201.425 27.2244 201.415 29.3116 201.408 31.0615C201.405 31.5692 201.479 32.201 201.89 32.5049C202.254 32.7751 202.745 32.7649 203.299 32.3643C203.305 32.3577 203.322 32.3366 203.324 32.334L203.031 32.1006H204.083L203.863 32.7686L203.589 32.5479C202.774 33.6399 201.482 34.1076 200.209 34.0107C198.927 33.9104 197.701 33.0121 197.391 31.7832C196.559 32.8519 195.374 33.6836 194.034 33.9541C193.757 34.0109 193.473 34.0406 193.19 34.0439C192.101 34.0606 190.872 33.7672 190.087 33.0293C189.095 32.1009 188.828 30.5007 189.362 29.2617C189.67 28.5472 190.254 27.973 190.905 27.5322C192.766 26.2766 194.923 26.0226 197.334 25.6318C197.334 24.2192 197.344 22.8059 197.13 21.7139C197.026 21.1864 196.822 20.6719 196.535 20.3848C196.064 19.9142 195.052 19.8005 194.428 20.2812C193.91 20.682 193.734 21.504 193.651 22.1484C193.567 22.7897 193.534 23.4681 193.19 24.0225C192.909 24.4765 192.424 24.8067 191.89 24.8936C191.359 24.9802 190.785 24.8169 190.391 24.4531C189.639 23.7618 189.676 22.5158 190.237 21.6709C190.812 20.8094 191.874 20.2084 192.865 19.9346ZM142.112 19.54C142.884 19.54 143.612 19.6239 144.297 19.7842C144.981 19.9478 145.639 20.1879 146.274 20.5117L146.401 23.8984H146.104C146.102 23.8962 146.08 23.8566 145.98 23.6045C145.208 21.6376 143.441 19.7842 141.151 20.0146C140.476 20.0815 139.902 20.3353 139.531 20.7559C138.747 21.6475 139.024 23.0307 139.962 23.7354C140.466 24.116 141.215 24.4662 142.206 24.79C142.751 24.9437 143.298 25.0879 143.836 25.2549L143.829 25.251C144.801 25.5515 145.78 25.9922 146.491 26.7402C147.186 27.4716 147.48 28.4208 147.48 29.4795C147.48 30.8651 146.965 31.8935 145.934 32.7783C144.748 33.7969 143.058 34.0006 141.545 34.0273C139.765 34.0574 137.978 33.6605 136.328 32.9893C136.288 31.8506 136.244 30.1041 136.204 28.9619C136.298 28.9653 136.395 28.9678 136.488 28.9678C137.437 30.9548 139.28 33.6101 141.645 33.5703C142.63 33.557 143.709 33.1661 144.126 32.2178C144.443 31.4964 144.37 30.5481 143.789 29.9736C143.165 29.3625 142.229 28.9986 141.414 28.7314C140.953 28.5812 140.493 28.4367 140.028 28.2998C138.82 27.9592 137.872 27.4286 137.177 26.7041C136.486 25.9794 136.138 25.0941 136.138 24.0488C136.138 22.7932 136.652 21.7275 137.684 20.8525C138.712 19.9776 140.189 19.5401 142.112 19.54ZM154.604 19.6885L157.877 19.7285V20.2793H157.867C156.762 20.2927 155.656 20.306 154.551 20.3193V30.2314C154.551 30.9862 154.591 31.8379 155.155 32.3389C155.593 32.7262 156.491 32.69 156.882 32.2559C156.97 32.3439 157.14 32.5142 157.149 32.5225C156.945 32.7596 156.751 32.9907 156.497 33.1777C155.883 33.6317 155.128 33.9023 154.37 33.9824C154.033 34.0192 153.695 34.0157 153.361 33.9756C152.817 33.9088 152.253 33.7513 151.809 33.4141C151.198 32.9466 150.8 32.2756 150.59 31.541C150.577 31.4943 150.563 31.4506 150.553 31.4072C150.339 30.569 150.343 29.694 150.346 28.8291C150.359 25.9938 150.373 23.1585 150.386 20.3232C149.711 20.3065 149.033 20.2931 148.359 20.2764V20.0293C148.367 20.0474 149.869 19.5419 151.615 18.0518C153.42 16.5121 154.401 15.2426 154.413 15.2266C154.413 15.2266 154.581 15.2197 154.664 15.2197C154.644 16.7092 154.624 18.199 154.604 19.6885ZM222.913 14.2695L222.796 17.2988V21.6699C223.487 21.0955 224.232 20.6082 225.03 20.2041C225.829 19.8 226.71 19.5957 227.679 19.5957C228.961 19.5957 229.983 19.9634 230.741 20.6914C231.499 21.4194 231.88 22.545 231.88 24.0645V31.7354C231.88 32.1328 231.96 32.4475 232.117 32.6846C232.274 32.9182 232.552 33.098 232.945 33.2148V33.2217L233.183 33.3125V33.6094H226.26V33.3125L226.613 33.2217C227.325 32.9846 227.679 32.4807 227.679 31.7129V23.0928C227.679 22.305 227.545 21.7641 227.278 21.4668C227.011 21.1696 226.543 21.0225 225.872 21.0225C225.438 21.0225 224.967 21.1055 224.452 21.2725C223.938 21.4395 223.417 21.7305 222.883 22.1445V31.7695C222.883 32.5375 223.237 33.032 223.948 33.249L224.186 33.3086V33.6064H217.259V33.3086L217.613 33.1914C218.324 32.9543 218.678 32.4638 218.678 31.7129V17.0518C218.678 16.6376 218.608 16.3299 218.471 16.1328C218.334 15.9359 218.067 15.7886 217.673 15.6885L217.229 15.5723V15.2744L222.439 14.002L222.913 14.2695ZM116.985 15.2725V15.5703C116.977 15.5726 116.515 15.7195 116.474 15.7334C115.749 16.0039 115.532 16.6616 115.531 17.3828V31.71C115.531 32.4613 115.886 32.9523 116.597 33.1895L116.951 33.3066V33.6045H110.025V33.3066L110.262 33.2471C110.973 33.03 111.327 32.5354 111.327 31.7676V14.251H111.33L111.775 14L116.985 15.2725ZM128.984 19.5273C130.283 19.5273 131.285 19.8814 131.986 20.5928C132.688 21.3041 133.038 22.3894 133.038 23.8486V31.7676L133.035 31.751C133.035 32.5188 133.409 33.0032 134.16 33.2002L134.428 33.29V33.5869H127.445V33.29L127.828 33.1729C128.52 32.9558 128.863 32.475 128.863 31.7236V22.8906C128.863 21.6282 128.232 20.9971 126.97 20.9971C126.102 20.9971 125.153 21.4307 124.128 22.2988V31.7568C124.128 32.525 124.472 33.01 125.163 33.207L125.431 33.2969V33.5938H118.477V33.2969L118.891 33.1797C119.582 32.9826 119.927 32.4986 119.927 31.7305V23.0742C119.927 22.6403 119.857 22.3194 119.72 22.1123C119.583 21.9052 119.315 21.7647 118.921 21.6846L118.477 21.5674V21.2705L123.536 19.5537L123.834 19.8516L124.071 21.6279C124.763 21.0169 125.541 20.5122 126.409 20.1182C127.277 19.7243 128.136 19.5274 128.984 19.5273ZM167.272 26.2197C165.796 26.4301 164.046 26.831 163.251 28.2002C162.804 28.9715 162.663 29.7292 162.913 30.584C163.03 30.9746 163.428 31.5259 163.732 31.7998C164.099 32.1304 164.513 32.251 164.934 32.2344C165.678 32.2077 166.447 31.757 167.025 31.3096C167.105 31.2495 167.185 31.1858 167.229 31.0957H167.225C167.272 31.0022 167.272 30.898 167.272 30.7979V26.2197ZM197.33 26.2197C195.854 26.4301 194.105 26.8311 193.31 28.2002C192.862 28.9715 192.722 29.7293 192.972 30.584C193.089 30.9746 193.486 31.5259 193.79 31.7998C194.157 32.1303 194.572 32.251 194.992 32.2344C195.737 32.2077 196.505 31.757 197.083 31.3096C197.163 31.2495 197.244 31.1858 197.287 31.0957H197.284C197.331 31.0022 197.33 30.898 197.33 30.7979V26.2197Z" fill="var(--fill-0, white)"/>
<path id="Vector" d="M100.944 19.3278C100.123 17.9185 98.9972 16.7028 97.4543 15.7477C97.4409 15.741 97.4309 15.731 97.4176 15.7243C97.4042 15.7176 97.3942 15.7076 97.3808 15.7009C95.8546 14.719 94.2749 14.2248 92.6485 14.0912C90.8851 13.9442 89.0082 14.4452 87.4419 15.2333C85.8889 16.0148 84.5664 17.2639 83.4743 18.9805C83.4743 18.9838 83.471 18.9872 83.4677 18.9905C83.4677 18.9905 83.4643 18.9972 83.461 19.0005C83.461 19.0039 83.4576 19.0072 83.4543 19.0105C83.4543 19.0105 83.451 19.0172 83.4476 19.0206C82.8431 19.9857 82.409 20.9509 82.1318 21.9228C81.1366 24.5144 80.689 26.9423 78.2143 29.771C77.857 30.1484 77.513 30.449 77.1156 30.8097C75.6127 32.1723 73.5822 32.8903 72.6003 32.2691C71.6184 31.6479 71.3913 29.5105 71.9758 27.5635C72.3398 26.3478 72.5335 25.563 73.7892 23.5625C75.055 21.5721 75.6828 21.0578 76.6213 20.2061C77.0254 19.8421 77.4529 19.5148 77.887 19.2477C77.887 19.2477 77.8937 19.2443 77.897 19.241C78.2978 18.9938 78.7053 18.7968 79.0993 18.6632C80.0244 18.2892 80.8827 18.0988 81.6208 18.0086L81.701 17.8082C81.701 17.8082 81.6943 17.8049 81.6909 17.8016C80.3317 16.9266 78.929 16.4891 77.4829 16.3688C75.9166 16.2386 74.2468 16.6828 72.8541 17.3841C71.4748 18.0788 70.2992 19.1909 69.3274 20.7171C69.3274 20.7171 69.324 20.7238 69.3207 20.7271C69.3207 20.7271 69.3174 20.7338 69.314 20.7372C69.314 20.7372 69.3107 20.7438 69.3074 20.7472C69.3074 20.7472 69.304 20.7539 69.3007 20.7572C68.3422 22.2901 67.8446 23.8297 67.8078 25.376C67.7711 26.9323 68.0884 28.6322 68.8799 29.9915C69.6113 31.2438 70.6098 32.3259 71.9824 33.1742C71.9925 33.1809 72.0025 33.1875 72.0158 33.1942C72.0259 33.2009 72.0359 33.2076 72.0492 33.2143C73.4085 34.0893 74.8112 34.5268 76.2573 34.647C77.8236 34.7772 79.4934 34.3331 80.8861 33.6317C82.2053 32.9671 83.3341 31.9185 84.2792 30.4958C84.2892 30.4824 84.2959 30.469 84.3059 30.4557C84.3393 30.4022 84.3761 30.3521 84.4128 30.2987C84.4128 30.2987 84.4161 30.292 84.4195 30.2887C84.4195 30.2887 84.4228 30.282 84.4262 30.2787C84.4262 30.2787 84.4295 30.272 84.4328 30.2687C84.4328 30.2687 84.4362 30.262 84.4395 30.2586C84.4662 30.2152 84.4896 30.1718 84.5163 30.125C84.5764 30.0282 84.6332 29.928 84.69 29.8278C84.7301 29.761 84.7668 29.6942 84.8035 29.6241C84.8603 29.5172 84.9171 29.4037 84.9739 29.2935C85.0106 29.22 85.0507 29.1432 85.0874 29.0697C85.0874 29.0697 85.0874 29.0664 85.0874 29.063C86.1461 26.802 86.8274 25.3359 87.1614 24.6179C87.2315 24.4542 87.3117 24.2806 87.4018 24.0969C87.6623 23.5692 88.0063 22.9547 88.4939 22.1732C89.9166 19.9356 90.6213 19.3579 91.68 18.3994C93.3732 16.8665 95.4639 15.9414 96.7597 16.7562C98.0555 17.5745 98.1189 19.8622 97.461 22.0497C97.0502 23.4156 96.8331 24.3006 95.4238 26.5482C94.3016 28.3149 93.6237 29.0463 92.8689 29.7477C92.8689 29.7477 92.4214 30.2353 91.6533 30.803C91.3694 31.0167 91.0788 31.2104 90.7849 31.3808C89.5693 32.1021 87.9095 32.7367 86.0559 32.4695L85.9825 32.6565C86.1394 32.7667 86.2964 32.8736 86.4634 32.9771C86.4767 32.9838 86.4867 32.9938 86.5001 33.0005C86.5135 33.0072 86.5235 33.0172 86.5368 33.0239C88.0631 34.0058 89.6428 34.5 91.2692 34.6336C93.0326 34.7806 94.9095 34.2796 96.4758 33.4915C98.0287 32.71 99.3513 31.4609 100.443 29.7443C100.443 29.741 100.447 29.7376 100.45 29.7343C100.45 29.7343 100.453 29.7276 100.457 29.7243C100.457 29.7209 100.46 29.7176 100.463 29.7143C100.463 29.7143 100.467 29.7076 100.47 29.7042C101.549 27.981 102.11 26.2477 102.15 24.511C102.19 22.7577 101.833 20.8507 100.944 19.3211V19.3278Z" fill="var(--fill-0, white)"/>
</g>
</g>
<defs>
<clipPath id="clip0_0_30">
<rect width="300" height="47" fill="white"/>
</clipPath>
</defs>
</svg>
