<svg preserveAspectRatio="none" width="100%" height="100%" overflow="visible" style="display: block;" viewBox="0 0 81 81" fill="none" xmlns="http://www.w3.org/2000/svg">
<g id="image 32 [Vectorized]">
<path id="Vector" d="M20.7812 12.5991C21.3067 12.5226 22.0306 12.5653 22.708 12.6548C23.408 12.7472 24.1197 12.8968 24.6104 13.0562C32.1119 15.4926 38.4551 22.3803 43.4639 27.9683C43.8718 28.4234 44.6195 29.3049 45.3223 30.1792C45.8548 30.8418 46.3859 31.5314 46.7188 32.0308C48.878 31.1182 51.629 30.2021 54.418 29.7007C57.3635 29.1712 60.4148 29.0903 62.8564 30.0181H62.8574C64.9214 30.7602 67.1886 32.4694 68.0605 34.6743C69.839 39.1725 68.2328 42.9838 65.4424 45.9712C62.7494 48.8542 58.9116 51.0249 55.7812 52.4429C55.5823 60.2219 51.7114 67.6035 44.0898 70.563L44.0879 70.564C38.1334 72.8426 31.5203 72.6802 25.6846 70.1128L25.667 70.105C20.2638 67.4783 16.4258 63.7536 13.7695 58.2847L13.7686 58.2837C10.9659 52.4588 11.6681 47.0589 14.7188 43.6177C17.7682 40.1779 23.0507 38.8232 29.1367 40.8442C33.8978 42.4253 36.6326 46.3304 38.5762 50.5181C39.7574 50.2541 40.4985 49.7655 40.9404 49.1821C41.4283 48.538 41.6045 47.7107 41.5225 46.7749C41.3563 44.8801 40.1389 42.6998 38.7227 41.2827C35.4122 37.9702 31.004 36.9979 26.3857 37.7915C25.6033 37.926 24.8658 38.0916 23.9863 38.0718L23.876 38.0698L23.7773 38.02C22.9288 37.5973 21.9602 36.7064 21.3701 36.0483C18.198 32.5108 15.3887 28.1421 14.1211 23.4829C13.4215 20.9115 13.5906 18.3361 14.7002 16.3169C15.7498 14.407 17.6142 13.0464 20.2451 12.6626L20.7812 12.5991ZM20.8496 17.519C19.8077 17.7175 19.2055 18.2867 18.8887 19.0239C18.5576 19.7945 18.525 20.787 18.7334 21.7876C19.6793 26.3292 22.5212 29.575 25.5107 33.0933C34.3187 31.242 43.7779 35.6218 46.168 44.9165C46.7541 47.1963 46.5336 49.5242 45.5332 51.4077C44.5277 53.3005 42.7463 54.7201 40.2793 55.1743L40.2783 55.1733C39.9065 55.2452 39.544 55.3013 39.1719 55.3501C38.7001 57.6525 37.566 59.341 35.9414 60.3638C34.2421 61.4335 32.0719 61.7356 29.709 61.3403C26.3283 60.7747 23.149 58.22 21.2754 55.5493H21.2744C21.1841 55.4205 21.0997 55.2877 21.0205 55.1519L20.8115 54.7954L21.126 54.5269C21.9576 53.8166 23.5901 52.3562 24.5234 51.7681L24.8906 51.5376L25.168 51.8706C25.895 52.7433 26.7466 53.7998 27.7031 54.647C28.6671 55.5007 29.6567 56.0668 30.6416 56.0728C32.0069 56.0809 32.8909 55.777 33.4375 55.3433C33.9733 54.918 34.2438 54.3214 34.293 53.604C34.394 52.127 33.5404 50.2223 32.2441 48.811C28.758 45.0161 23.1118 43.2295 18.9395 46.4165C17.7654 47.3861 17.1119 48.9309 17.0088 50.5171C16.9895 50.8632 16.9865 51.2099 17 51.5562L17.0195 51.9028V51.9087C17.2638 55.9819 19.721 59.9117 23.1777 62.7886C26.6341 65.6651 31.0182 67.4273 35.0176 67.2388C35.2936 67.2258 35.5754 67.2238 35.8438 67.2212C36.1158 67.2185 36.3754 67.216 36.625 67.2026C44.7528 66.7658 50.0737 60.8168 50.8037 52.8423C50.8445 52.3966 50.9033 51.7923 51.0078 51.1958C51.1104 50.6101 51.2658 49.9807 51.5215 49.5093L51.5371 49.48L51.5576 49.4517C51.9807 48.877 52.5911 48.4891 53.1729 48.1831C53.4657 48.029 53.7679 47.8877 54.0459 47.7554C54.3292 47.6206 54.5889 47.4941 54.8203 47.3618C56.5665 46.3633 58.8914 45.0529 60.7598 43.4302C62.6394 41.7976 63.9461 39.9439 63.8604 37.8774C63.7986 36.3893 62.9354 35.4075 61.7119 34.8237C60.4699 34.2311 58.8923 34.0741 57.5664 34.27C54.7153 34.6913 52.0093 35.3819 49.2803 36.3599L49.2705 36.3638C47.9006 36.8208 47.0367 37.4782 45.2344 37.3374L45.1143 37.3276L45.0117 37.2642C44.6043 37.011 44.1792 36.6101 43.7656 36.1597C43.347 35.7038 42.916 35.1703 42.4971 34.6294C41.6425 33.5261 40.8612 32.4246 40.2627 31.7446C38.0753 29.2598 34.9286 25.5735 31.4385 22.563C29.695 21.0591 27.8805 19.7372 26.0732 18.8218C24.2751 17.911 22.5127 17.4168 20.8496 17.519ZM61.8564 18.7612L61.9072 18.7651L62.0713 18.7817L62.1934 18.8921C62.3003 18.9894 62.3893 19.1342 62.4531 19.2446C62.5272 19.3728 62.6077 19.5298 62.6904 19.7017C62.8564 20.0466 63.0436 20.4769 63.2236 20.9097C63.5827 21.7728 63.9266 22.6774 64.0303 22.9868L64.1865 23.4536L63.7207 23.6128C62.641 23.9819 61.3529 24.5882 60.1963 25.0425C59.4119 25.3505 57.9047 25.9317 57.2891 26.2739L57.0439 26.4097L56.8018 26.27C56.6623 26.1896 56.5487 26.0627 56.4688 25.9634C56.3792 25.8521 56.2877 25.7176 56.1973 25.5747C56.016 25.2881 55.8194 24.932 55.6318 24.5737C55.2642 23.8717 54.8868 23.073 54.7402 22.7847L54.5332 22.3784L54.9219 22.1392C55.2259 21.9522 55.6512 21.7138 55.9912 21.561C56.9061 21.1499 57.8275 20.6653 58.7695 20.1763C59.7058 19.6902 60.6609 19.2007 61.6172 18.7974L61.7324 18.7485L61.8564 18.7612ZM41.7227 10.9731L41.8457 10.9946L41.9746 11.0181L42.0762 11.103C42.1654 11.1779 42.2296 11.2814 42.2598 11.3306C42.3023 11.3999 42.3494 11.4848 42.3975 11.5776C42.4941 11.7642 42.611 12.0106 42.7402 12.2935C42.9997 12.8613 43.3182 13.5995 43.6357 14.3511C44.2696 15.8515 44.9128 17.4356 45.085 17.8491L45.2461 18.2378L44.8887 18.4595C44.6384 18.6149 43.869 19.0365 43.1133 19.4048C42.7338 19.5897 42.3457 19.7669 42.0205 19.8931C41.8588 19.9558 41.7019 20.0099 41.5635 20.0454C41.4943 20.0631 41.4211 20.0793 41.3486 20.0874C41.2822 20.0948 41.1838 20.0997 41.0791 20.0757L40.873 20.0288L40.7646 19.8472C39.914 18.4225 38.1642 14.7175 37.4561 13.2134L37.2178 12.7095L37.7471 12.5337C38.4891 12.2866 40.6907 11.3577 41.4248 11.0122L41.5674 10.9448L41.7227 10.9731ZM52.0967 9.78467C53.3251 10.3655 54.6865 10.9273 55.9619 11.4819L56.4502 11.6938L56.2031 12.1655C55.8985 12.7464 55.447 13.9535 55.1445 14.6792C54.4487 16.3747 53.7201 18.0574 52.958 19.7241L52.9023 19.8472L52.791 19.9243C52.5934 20.0616 52.3576 20.0637 52.2236 20.0571C52.0629 20.0492 51.885 20.0164 51.709 19.9741C51.3542 19.8888 50.9326 19.7461 50.5234 19.5923C49.7093 19.2863 48.8536 18.9029 48.5879 18.7935L48.1436 18.6108L48.3145 18.1606C49.3239 15.5014 50.3361 12.6777 51.4277 10.0425L51.627 9.56201L52.0967 9.78467Z" fill="var(--fill-0, #C7FC07)" stroke="var(--stroke-0, #C7FC07)" stroke-width="0.989695"/>
</g>
</svg>
