<svg preserveAspectRatio="none" width="100%" height="100%" overflow="visible" style="display: block;" viewBox="0 0 40 25" fill="none" xmlns="http://www.w3.org/2000/svg">
<g id="Group 1912054745">
<path id="Polygon 8" d="M13 0L18.1962 3V9L13 12L7.80385 9V3L13 0Z" fill="var(--fill-0, white)"/>
<path id="Polygon 10" d="M6 13L11.1962 16V22L6 25L0.803848 22V16L6 13Z" fill="var(--fill-0, white)"/>
<path id="Polygon 9" d="M27 0L32.1962 3V9L27 12L21.8038 9V3L27 0Z" fill="var(--fill-0, white)"/>
<path id="Polygon 11" d="M20 13L25.1962 16V22L20 25L14.8038 22V16L20 13Z" fill="var(--fill-0, white)"/>
<path id="Polygon 12" d="M34 13L39.1962 16V22L34 25L28.8038 22V16L34 13Z" fill="var(--fill-0, white)"/>
</g>
</svg>
