<svg preserveAspectRatio="none" width="100%" height="100%" overflow="visible" style="display: block;" viewBox="0 0 326.412 97.5361" fill="none" xmlns="http://www.w3.org/2000/svg">
<path id="Subtract" d="M121.718 0C129.995 4.824e-05 137.036 1.96247 142.838 5.8877C148.726 9.72768 153.206 15.2751 156.278 22.5283C159.435 29.7815 161.014 38.5279 161.014 48.7676C161.014 59.0075 159.435 67.7545 156.278 75.0078C153.206 82.2611 148.726 87.8511 142.838 91.7764C137.036 95.6163 129.995 97.5361 121.718 97.5361C113.526 97.5361 106.486 95.6162 100.598 91.7764C94.7102 87.851 90.1871 82.2611 87.0298 75.0078C83.9579 67.7545 82.4224 59.0074 82.4224 48.7676C82.4224 38.528 83.9579 29.7815 87.0298 22.5283C88.8565 18.3319 91.1415 14.7074 93.8823 11.6533L102.922 19.3184L101.555 5.27441C107.244 1.7586 113.965 2.98072e-05 121.718 0ZM309.004 1.79199C309.943 1.79209 310.54 2.09129 310.796 2.68848C311.052 3.20039 310.923 3.84068 310.412 4.6084L292.108 31.7441C293.302 31.5735 294.54 31.4883 295.82 31.4883C301.793 31.4883 307.041 32.896 311.564 35.7119C316.172 38.4425 319.799 42.2398 322.444 47.1035C325.089 51.8822 326.412 57.4295 326.412 63.7441C326.412 70.4001 324.834 76.2882 321.676 81.4082C318.519 86.4428 314.124 90.4102 308.492 93.3115C302.86 96.1275 296.289 97.5361 288.78 97.5361C281.271 97.5361 274.657 95.9997 268.94 92.9277C263.308 89.8558 258.871 85.717 255.628 80.5117C252.471 75.2211 250.892 69.333 250.892 62.8477C250.892 59.0078 251.49 55.0827 252.684 51.0723C253.879 47.0616 255.756 42.5811 258.316 37.6318C259.967 34.489 261.967 30.9799 264.317 27.1055L278.259 30.8398L270.321 17.5557L279.436 3.32812C280.119 2.30418 281.058 1.79205 282.252 1.79199H309.004ZM36.7466 0C43.4878 0 49.376 1.27994 54.4106 3.83984C59.4453 6.3145 63.371 9.81332 66.187 14.3359C69.0883 18.7733 70.5386 23.9788 70.5386 29.9521C70.5386 34.4747 69.7708 38.7414 68.2349 42.752C66.7842 46.7626 64.3523 50.8161 60.939 54.9121C57.5257 59.008 52.8746 63.4877 46.9868 68.3516H70.4106C71.9466 68.3516 72.7144 69.1202 72.7144 70.6562V93.4404C72.7142 94.9761 71.9465 95.7441 70.4106 95.7441H4.74659C3.21096 95.744 2.44302 94.976 2.44287 93.4404V86.1436C2.44298 85.0345 2.82739 84.096 3.59522 83.3281L12.7544 73.166L24.437 71.2881L18.314 66.998L28.1704 56.0645C33.0344 50.7738 36.448 46.3785 38.4106 42.8799C40.4586 39.3813 41.4828 36.1815 41.4829 33.2803C41.4829 31.3177 40.8429 29.7386 39.563 28.5439C38.3683 27.3493 36.7467 26.752 34.6987 26.752C30.4322 26.752 27.2324 29.5683 25.0991 35.2002C24.5871 36.6507 23.6053 37.1629 22.1548 36.7363L1.80225 31.2324C0.266667 30.8057 -0.287425 29.8665 0.139164 28.416C2.44316 19.6268 6.83751 12.7143 13.3228 7.67969C19.8933 2.55984 27.7015 6.60035e-05 36.7466 0ZM206.497 0C213.238 0 219.126 1.27995 224.161 3.83984C229.195 6.3145 233.121 9.81332 235.937 14.3359C238.838 18.7733 240.289 23.9788 240.289 29.9521C240.289 34.4747 239.521 38.7414 237.985 42.752C236.534 46.7626 234.102 50.8161 230.689 54.9121C227.276 59.008 222.625 63.4877 216.737 68.3516H240.161C241.697 68.3516 242.464 69.1202 242.464 70.6562V93.4404C242.464 94.9761 241.697 95.7441 240.161 95.7441H239.783L225.073 87.1162L227.459 95.7441H174.497C172.961 95.744 172.193 94.976 172.193 93.4404V86.1436C172.193 85.0345 172.577 84.096 173.345 83.3281L197.92 56.0645C202.784 50.7738 206.198 46.3785 208.161 42.8799C210.209 39.3813 211.233 36.1815 211.233 33.2803C211.233 31.3177 210.593 29.7386 209.313 28.5439C208.118 27.3493 206.497 26.752 204.449 26.752C200.182 26.752 196.982 29.5683 194.849 35.2002C194.337 36.6507 193.355 37.1629 191.905 36.7363L171.553 31.2324C170.017 30.8057 169.463 29.8666 169.889 28.416C172.193 19.6268 176.588 12.7143 183.073 7.67969C189.643 2.55984 197.451 6.88743e-05 206.497 0ZM288.652 51.0723C285.751 51.0723 283.319 52.0531 281.356 54.0156C279.479 55.9783 278.54 58.5816 278.54 61.8242C278.54 64.9814 279.479 67.5839 281.356 69.6318C283.319 71.5944 285.751 72.5761 288.652 72.5762C291.638 72.5762 294.07 71.5944 295.948 69.6318C297.825 67.5839 298.764 64.9815 298.764 61.8242C298.764 58.5816 297.825 55.9783 295.948 54.0156C294.07 52.0532 291.638 51.0723 288.652 51.0723ZM121.718 27.9043C119.756 27.9043 117.964 28.5443 116.342 29.8242C114.721 31.0188 113.441 33.152 112.502 36.2236C111.564 39.2102 111.094 43.3918 111.094 48.7676C111.094 54.058 111.564 58.2396 112.502 61.3115C113.441 64.3834 114.721 66.5598 116.342 67.8398C117.964 69.0344 119.756 69.6318 121.718 69.6318C123.766 69.6318 125.558 69.0344 127.094 67.8398C128.715 66.5598 129.995 64.3833 130.934 61.3115C131.873 58.2396 132.342 54.058 132.342 48.7676C132.342 43.3918 131.873 39.2102 130.934 36.2236C129.995 33.152 128.715 31.0189 127.094 29.8242C125.558 28.5443 123.766 27.9044 121.718 27.9043Z" fill="var(--fill-0, #C7FC07)"/>
</svg>
