<svg width="32" height="32" viewBox="0 0 32 32" fill="none" xmlns="http://www.w3.org/2000/svg">
  <rect width="32" height="32" rx="7" fill="#0C0C0E"/>
  <path transform="translate(2 2)" d="M7.20195 3.8345C7.38432 3.80582 7.63993 3.82153 7.87871 3.85305C8.12077 3.88502 8.36729 3.93663 8.53691 3.99172C11.1299 4.83394 13.3222 7.21446 15.0535 9.14602C15.1945 9.30334 15.4532 9.60843 15.6961 9.91067C15.88 10.1395 16.0634 10.3777 16.1785 10.5503C16.925 10.2348 17.8764 9.91897 18.8406 9.74563C19.8602 9.56234 20.9169 9.53386 21.7615 9.85598H21.7605C22.4733 10.113 23.2554 10.7031 23.5564 11.4644C24.1712 13.0193 23.6157 14.337 22.6512 15.3697C21.7205 16.3659 20.3942 17.1159 19.3123 17.606C19.2437 20.2952 17.9051 22.8475 15.2703 23.8706H15.2693C13.211 24.6582 10.9252 24.6019 8.90801 23.7144L8.90215 23.7124C7.03444 22.8045 5.70708 21.5169 4.78887 19.6265V19.6255C3.82013 17.6121 4.06267 15.7457 5.11699 14.5562C6.17113 13.3671 7.99755 12.8986 10.1014 13.5972C11.7466 14.1435 12.6913 15.493 13.3631 16.94C13.772 16.8488 14.0286 16.6809 14.1814 16.479C14.35 16.2564 14.411 15.9705 14.3826 15.647C14.3251 14.9921 13.9043 14.2384 13.4148 13.7486C12.2705 12.6036 10.7466 12.2672 9.1502 12.5415C8.87976 12.588 8.62505 12.646 8.32109 12.6392L8.28301 12.6382L8.24883 12.6206C7.9555 12.4745 7.62075 12.1665 7.4168 11.939C6.32037 10.7163 5.34916 9.2066 4.91094 7.59622C4.66907 6.70729 4.72754 5.8167 5.11113 5.11868C5.49673 4.41706 6.2002 3.92985 7.20195 3.8345ZM7.23809 5.53372C6.87716 5.60205 6.66906 5.79919 6.55937 6.05422C6.44493 6.32053 6.43369 6.66349 6.50566 7.0093C6.83274 8.5797 7.81563 9.70187 8.84941 10.9185C11.8937 10.2793 15.1629 11.7921 15.9891 15.0044C16.1917 15.7925 16.1151 16.5974 15.7693 17.2486C15.4219 17.9027 14.8062 18.3921 13.9539 18.5493L13.9549 18.5503C13.8247 18.5755 13.6975 18.5948 13.5672 18.6118C13.404 19.4071 13.0151 19.9908 12.4539 20.3443C11.8665 20.7141 11.1155 20.8188 10.2986 20.6822C9.13018 20.4865 8.03119 19.6033 7.38359 18.6802C7.35247 18.6358 7.32301 18.5903 7.2957 18.5435L7.22344 18.4195L7.33184 18.3267C7.61927 18.0812 8.18399 17.5769 8.50664 17.3736L8.63359 17.2935L8.7293 17.4087C8.98067 17.7104 9.2755 18.0758 9.60625 18.3687C9.93944 18.6637 10.2815 18.8588 10.6219 18.8609C11.0936 18.8636 11.3988 18.7588 11.5877 18.6089C11.773 18.4619 11.8666 18.2554 11.8836 18.0073C11.9183 17.4968 11.6235 16.8388 11.1756 16.3511C9.97171 15.0406 8.02174 14.4219 6.57988 15.5191L6.58086 15.52C6.17228 15.855 5.94477 16.3907 5.90898 16.9409C5.90454 17.0206 5.90254 17.1004 5.90312 17.1802L5.91289 17.4204V17.4214C5.9973 18.8295 6.84685 20.1886 8.0418 21.1831C9.23656 22.1773 10.7522 22.7864 12.1346 22.7212C12.2299 22.7167 12.3271 22.7163 12.4197 22.7154C12.5138 22.7144 12.6039 22.7132 12.6902 22.7085C15.4996 22.5574 17.3393 20.5012 17.5916 17.7447C17.6057 17.5906 17.6258 17.3815 17.6619 17.1753C17.6974 16.9729 17.7513 16.7552 17.8396 16.5923L17.8445 16.5825L17.8514 16.5728C17.9976 16.3742 18.2089 16.2401 18.41 16.1343C18.5112 16.081 18.6156 16.0316 18.7117 15.9859C18.8096 15.9393 18.8994 15.8958 18.9793 15.8501C19.583 15.505 20.3871 15.0517 21.033 14.4907C21.6826 13.9265 22.1339 13.286 22.1043 12.5718C22.0829 12.0574 21.785 11.718 21.3621 11.5161C20.9328 11.3113 20.3869 11.257 19.9285 11.3247C18.9431 11.4704 18.0075 11.7094 17.0643 12.0474L17.0613 12.0484C16.5878 12.2064 16.2889 12.4339 15.6658 12.3853L15.6248 12.3814L15.5887 12.3599C15.4479 12.2724 15.3009 12.1337 15.158 11.9781C15.0133 11.8204 14.8644 11.6358 14.7195 11.4488C14.4241 11.0673 14.154 10.6867 13.9471 10.4517C13.1909 9.59274 12.1037 8.3185 10.8973 7.27786C10.2947 6.75808 9.6674 6.30136 9.04277 5.98489C8.42172 5.6703 7.81256 5.49873 7.23809 5.53372ZM21.4119 5.9634L21.4295 5.96536L21.4861 5.97024L21.5281 6.00833C21.565 6.04191 21.5959 6.09223 21.618 6.1304C21.6436 6.17468 21.6714 6.2292 21.7 6.2886C21.7574 6.40786 21.8223 6.55697 21.8846 6.70657C22.0086 7.00481 22.1271 7.3174 22.1629 7.42434L22.2176 7.58547L22.0564 7.64016C21.6832 7.76776 21.2376 7.97822 20.8377 8.13528C20.5665 8.24179 20.0455 8.44183 19.8328 8.56008L19.7488 8.60793L19.6648 8.55911C19.6166 8.53129 19.5772 8.48702 19.5496 8.45266C19.5187 8.41426 19.487 8.36815 19.4559 8.31887C19.3932 8.2198 19.3244 8.09699 19.2596 7.97317C19.1325 7.73047 19.0026 7.45371 18.952 7.35403L18.8807 7.2134L19.0145 7.13137C19.1195 7.06674 19.267 6.98399 19.3846 6.93118C19.7007 6.78912 20.0191 6.62164 20.3445 6.45266C20.6681 6.28468 20.9984 6.11551 21.3289 5.9761L21.3689 5.9595L21.4119 5.9634ZM14.4949 3.27883L14.5389 3.28665L14.574 3.31594C14.6049 3.34182 14.627 3.37803 14.6375 3.39504C14.6522 3.41896 14.6688 3.44799 14.6854 3.48C14.7188 3.54454 14.7588 3.63017 14.8035 3.72805C14.8932 3.92433 15.0033 4.17922 15.1131 4.43899C15.3321 4.95735 15.5544 5.5046 15.6141 5.64797L15.6697 5.78274L15.5467 5.85891C15.4603 5.9126 15.1938 6.05867 14.9324 6.18606C14.8014 6.2499 14.6678 6.31143 14.5555 6.355C14.4996 6.37666 14.4451 6.39546 14.3973 6.40774C14.3735 6.41384 14.348 6.41859 14.323 6.42141C14.3001 6.42398 14.2655 6.4258 14.2293 6.4175L14.158 6.40188L14.1209 6.33938C13.8269 5.84689 13.2221 4.56539 12.9773 4.04543L12.8953 3.87161L13.0779 3.81106C13.3345 3.72563 14.0957 3.40412 14.3494 3.28469L14.3982 3.26125L14.4949 3.27883ZM18.0379 2.86086C18.4624 3.06157 18.933 3.25513 19.3738 3.4468L19.5428 3.52004L19.4578 3.68313C19.4051 3.78369 19.3395 3.93899 19.2742 4.10012L19.0916 4.55325C18.8511 5.13917 18.5991 5.72044 18.3357 6.29641L18.3162 6.33938L18.2781 6.36575C18.2098 6.41323 18.1281 6.41393 18.0818 6.41165C18.0263 6.4089 17.9649 6.39794 17.9041 6.38333C17.7815 6.35383 17.6354 6.30368 17.4939 6.25051C17.2126 6.14476 16.9168 6.01293 16.825 5.97512L16.6717 5.91165L16.7303 5.75637C17.0792 4.83713 17.4301 3.86067 17.8074 2.94973L17.8758 2.78372L18.0379 2.86086Z" fill="#FFFFFF"/>
</svg>
