<svg preserveAspectRatio="none" width="100%" height="100%" overflow="visible" style="display: block;" viewBox="0 0 2957.94 1833.37" fill="none" xmlns="http://www.w3.org/2000/svg">
<path id="Union" d="M1605.51 69.0117C1779.36 -51.6769 2017.13 -9.97977 2136.56 162.132C2157.79 192.718 2173.63 225.459 2184.69 259.139L2122.49 302.247L2122.56 302.346C2114.17 308.112 2104.84 314.521 2094.97 321.326L2036.95 361.539C2036.95 361.49 2036.92 361.44 2036.92 361.391C1948.09 422.811 1831.6 503.807 1728.69 575.522C1742.79 582.105 1757.61 586.782 1772.73 590.172C1788.99 593.364 1805.67 594.973 1821.63 595.369C1827.94 595.32 1834.27 595.393 1840.6 594.75L1840.58 595.072C1973.13 593.266 2097.62 543.673 2212.03 448.696C2267.21 402.89 2496.29 192.595 2686.84 16.747H2937C2855.14 92.5036 2748.2 191.291 2645.71 285.438C2689.83 280.615 2735.47 287.737 2775.55 306.142L2853.67 406.365C2815.96 367.937 2749.3 361.92 2704.82 392.876C2660.33 423.798 2654.84 480.039 2692.57 518.446L2897.23 726.848C2897.3 726.916 2948.12 773.556 2956.12 842.061C2957.56 852.7 2958.34 863.49 2957.74 874.487C2955.86 910.477 2943.21 944.847 2922.17 974.905C2894.38 1014.59 2851.85 1046.77 2799.78 1065.17C2787.22 1069.6 2749.51 1083.25 2697.26 1102.34C2702.8 1190.25 2677.01 1276.53 2626.64 1347C2623.61 1351.5 2620.71 1355.9 2617.36 1360.69C2518.54 1501.82 2372.88 1601.55 2192.11 1651.02C2100.68 1676.02 1641.64 1776.21 1377.64 1833.37L1521.12 1628.45C1625.82 1605.63 1739.1 1580.79 1840.88 1558.16C1762.39 1555.71 1698.79 1499.29 1688.02 1413.33L1639.9 1029.18C1636.84 1022.63 1634.89 1018.7 1634.53 1018.43C1628.11 1013.89 1605.14 1010.43 1575.51 1029.08C1563.59 1036.58 1532.41 1055.84 1489.46 1082.26C1557.44 1251.42 1494.57 1450.54 1332.25 1549.6C1151.61 1659.85 916.708 1604.23 807.604 1425.39C788.21 1393.61 774.327 1360 765.268 1325.72L829.902 1286.35L829.834 1286.25C838.547 1280.98 848.237 1275.14 858.493 1268.92L918.782 1232.19C918.779 1232.24 918.802 1232.29 918.799 1232.34C1011.09 1176.26 1132.15 1102.26 1239.1 1036.72C1225.4 1029.32 1210.88 1023.78 1195.99 1019.5C1179.95 1015.36 1163.4 1012.77 1147.49 1011.44C1141.19 1011.12 1134.87 1010.67 1128.51 1010.94L1128.55 1010.62C996.121 1004.62 868.932 1046.81 749.127 1134.89C691.348 1177.37 450.294 1373.82 249.726 1538.15L0 1523.43C208.699 1351.94 572.217 1054.26 648.574 998.096C799.574 887.09 968.182 834.806 1140.17 844.943C1146 845.287 1151.26 845.745 1156.66 846.163C1243.19 850.42 1326.84 883.76 1392.32 942.677C1439.72 913.566 1473.83 892.472 1485.1 885.378C1531.85 855.981 1583.47 842.614 1631.84 845.465C1668.47 847.624 1703.27 859.045 1732.65 879.914C1741.64 886.27 1749.61 893.582 1757.07 901.31C1805.84 950.144 1810.83 1019.01 1810.83 1019.01L1847.16 1308.83C1853.85 1362.25 1901.35 1392.86 1953.21 1377.18C1971.56 1371.64 1988 1361.06 2001.29 1347.33C1982.88 1321.24 1967.4 1292.44 1955.84 1261.08C1883.36 1064.52 1985.58 845.844 2184.16 772.659C2362.58 706.9 2557.72 781.22 2648.13 939.526C2695.51 922.256 2729.96 909.768 2743.24 905.082C2776.26 893.434 2787.81 873.277 2788.24 865.42C2788.25 864.974 2786.37 861.004 2783.14 854.539L2511.84 578.339C2475.85 541.691 2459.53 496.928 2461.96 453.411C2395.84 513.43 2343.98 559.803 2320.46 579.333C2176.25 699.032 2011.01 761.145 1838.72 761.145C1832.88 761.145 1827.61 760.997 1822.19 760.898C1735.57 761.74 1650.1 733.38 1581.26 678.418C1535.66 710.267 1502.85 733.33 1492.01 741.076C1447.08 773.172 1396.33 789.555 1347.88 789.555C1311.19 789.555 1275.78 780.2 1245.22 761.096C1235.87 755.28 1227.48 748.45 1219.58 741.175C1168.07 695.341 1159.01 626.984 1158.99 626.847L1105.67 339.663C1095.84 286.731 1046.63 258.965 995.777 277.674C944.904 296.357 911.6 354.412 921.447 407.345L884.158 285.864C898.732 205.933 955.495 132.511 1032.5 104.201L1038.56 101.974C1140.31 64.6064 1238.74 120.113 1258.38 225.978L1329.03 606.629C1332.47 612.989 1334.64 616.799 1335.01 617.047C1341.7 621.204 1364.83 623.307 1393.31 602.941C1404.77 594.75 1434.76 573.691 1476.08 544.787C1398.26 379.926 1449.31 177.451 1605.51 69.0117ZM2528.42 1164.08C2410.65 1207.24 2277.48 1256.21 2176.22 1293.75C2176.26 1293.78 2176.28 1293.83 2176.32 1293.85L2110.1 1318.32C2098.87 1322.5 2088.26 1326.47 2078.73 1330.03L2078.69 1329.92L2056.04 1338.29L2065.12 1375.57C2048.29 1444.56 1999.59 1506.69 1935.15 1537.09C2036.37 1514.32 2115.93 1495.85 2147.29 1487.27C2290.72 1448.02 2402.75 1374.49 2480.25 1266.95L2479.98 1266.79C2484.14 1261.97 2487.71 1256.73 2491.37 1251.59C2500.2 1238.29 2508.45 1223.71 2515.16 1208.56C2521.05 1194.23 2525.72 1179.41 2528.42 1164.08ZM1344.05 1170.29C1224.97 1242.83 1085.93 1327.28 988.268 1386.25C1057.6 1447.1 1161.9 1458.71 1245.69 1407.9C1329.5 1357.04 1366.85 1259.48 1344.05 1170.29ZM2488.85 998.876C2433.09 925.641 2333.42 894.354 2241.51 928.495C2149.66 962.644 2094.01 1051.62 2098.68 1143.74C2205.54 1103.78 2358.06 1047.21 2488.85 998.876ZM1958.52 211.838C1885.73 155.172 1780.93 149.726 1700.27 205.377C1619.59 261.077 1588.05 360.67 1616.06 448.354C1730.67 368.938 1864.49 276.45 1958.52 211.838Z" fill="var(--fill-0, white)" fill-opacity="0.27"/>
</svg>
