<svg preserveAspectRatio="none" width="100%" height="100%" overflow="visible" style="display: block;" viewBox="0 0 70.9538 47.3026" fill="none" xmlns="http://www.w3.org/2000/svg">
<g id="LOGO">
<path id="Union" d="M37.7645 5.34082C42.1878 5.34082 45.775 8.92735 45.7752 13.3516C45.7752 13.7255 45.7441 14.0923 45.6922 14.4521H32.074C32.5897 17.1237 34.9442 19.1483 37.7645 19.1484C40.6783 19.1484 42.2968 18.2171 43.0789 17.7676L43.24 17.6758L43.5672 17.4951L45.1453 19.0742C43.823 20.0393 41.4612 21.3623 37.7645 21.3623C33.3402 21.3621 29.7537 17.775 29.7537 13.3516C29.7539 8.92748 33.3404 5.34103 37.7645 5.34082ZM9.48711 5.33984C12.1943 5.33986 14.5828 6.70224 16.0213 8.7793L14.115 9.8877C13.0613 8.46599 11.382 7.53908 9.48711 7.53906C6.30149 7.53906 3.71074 10.1464 3.71074 13.3506C3.71094 16.5554 6.30162 19.1621 9.48711 19.1621C11.3706 19.1621 13.041 18.2464 14.0965 16.8389L16.0027 17.9463C14.5625 20.0093 12.183 21.3613 9.48711 21.3613C5.08963 21.3613 1.5254 17.7748 1.5252 13.3506C1.5252 8.92707 5.08951 5.33984 9.48711 5.33984ZM63.3211 12.7412C63.3211 12.7454 63.3221 12.7497 63.3221 12.7539C63.3221 12.7581 63.3211 12.7624 63.3211 12.7666V20.1406H61.1219V18.1436C59.6614 19.6522 57.6015 20.5996 55.3113 20.5996C50.8868 20.5996 47.3007 17.0867 47.3006 12.7539C47.3006 8.4211 50.8867 4.90921 55.3113 4.90918C57.6015 4.90918 59.6614 5.85565 61.1219 7.36426V0H63.3211V12.7412ZM25.6541 5.33984C27.1524 5.33984 28.5512 5.74093 29.7557 6.42773L28.4725 8.19336C27.6357 7.74873 26.6752 7.49414 25.6541 7.49414C22.412 7.49422 19.7734 10.0483 19.7732 13.1865C19.7732 13.2192 19.7782 13.2513 19.7791 13.2832V18.582C19.7764 18.5794 19.774 18.5768 19.7723 18.5742V20.5986H17.5486V5.77539H19.7723V7.79883C21.2491 6.28824 23.3351 5.33988 25.6541 5.33984ZM55.3123 7.06348C52.1072 7.06348 49.4999 9.61618 49.4998 12.7539C49.4998 15.8926 52.1071 18.4453 55.3123 18.4453C58.5085 18.4451 61.1086 15.9057 61.1219 12.7793V12.7305C61.1087 9.6031 58.5085 7.06368 55.3123 7.06348ZM37.7645 7.55371C34.9439 7.55371 32.5896 9.57919 32.074 12.252H43.4549C42.9385 9.57924 40.5849 7.55378 37.7645 7.55371Z" fill="var(--fill-0, white)"/>
<path id="Fill 33" fill-rule="evenodd" clip-rule="evenodd" d="M35.2609 31.4761C37.4251 29.9709 40.2367 30.1178 42.1896 31.6506C39.6659 33.3977 36.0757 35.8983 33.001 38.0455C32.2501 35.6745 33.0959 32.9821 35.2609 31.4761M68.664 26.4001H61.912C59.8867 28.2734 57.701 30.2892 55.7032 32.1236L52.4941 26.4079H46.8638L51.9802 35.522C50.636 36.7403 49.597 37.6666 49.0961 38.0831C46.0077 40.6519 42.6476 41.9929 39.0694 42.0422L39.0703 42.0335C38.8996 42.05 38.7289 42.0482 38.5581 42.05C38.1279 42.0396 37.6778 41.9955 37.239 41.9091C36.8294 41.8184 36.4302 41.6905 36.0491 41.5134C38.828 39.5736 41.9716 37.3823 44.3686 35.7216C44.3695 35.7233 44.3695 35.7242 44.3695 35.725L45.9344 34.6398C46.2008 34.4549 46.4534 34.2812 46.681 34.1248L46.6785 34.1222L48.358 32.9557C48.0597 32.045 47.6329 31.1602 47.0596 30.3324C43.8349 25.6778 37.4174 24.5493 32.7253 27.8137C28.5082 30.7463 27.1312 36.2236 29.2316 40.6822C28.1159 41.4641 27.3063 42.0335 26.9976 42.2547C26.2276 42.8052 25.6043 42.7481 25.4241 42.6367C25.337 42.5822 25.3111 42.3299 25.3611 42.0223L27.208 31.1395C27.6951 28.2682 25.7181 25.9404 22.7926 25.9404H22.6184C20.4043 25.9404 18.2824 27.2754 17.1692 29.1694C16.6993 27.2754 15.0309 25.9404 12.8159 25.9404H12.6305C10.7328 25.9404 8.90579 26.9237 7.72025 28.397L8.06082 26.3897H3.3816L0 46.315H3.87478H4.67836L7.00634 32.6015C7.25034 31.1654 8.63333 30.0015 10.0965 30.0015C11.5597 30.0015 12.5478 31.1654 12.3038 32.6015L9.9758 46.315H13.8627H14.655L16.983 32.6015C17.2261 31.1654 18.61 30.0015 20.0732 30.0015C21.5363 30.0015 22.5244 31.1654 22.2804 32.6015L21.5743 36.7628C21.3587 38.0105 21.0268 39.9486 20.8242 41.1678C20.4534 43.3996 21.2785 45.457 22.9995 46.5318C23.8247 47.0486 24.78 47.3026 25.7707 47.3026C27.0786 47.3026 28.4487 46.8593 29.661 45.9909C29.9541 45.781 30.8396 45.158 32.07 44.2957C33.9281 45.7827 36.2353 46.55 38.5737 46.5267C38.7202 46.5293 38.8625 46.5336 39.0194 46.5336C43.6702 46.5336 48.1304 44.8538 52.0216 41.6162C52.457 41.255 53.252 40.5517 54.2823 39.6237L58.0347 46.3089H63.6658L58.0097 36.2314C61.4921 33.0421 65.6911 29.1573 68.664 26.4001M68.2835 41.1992C66.8088 41.1992 65.6133 42.3948 65.6133 43.8695C65.6133 45.3442 66.8088 46.5398 68.2835 46.5398C69.7591 46.5398 70.9538 45.3442 70.9538 43.8695C70.9538 42.3948 69.7591 41.1992 68.2835 41.1992" fill="var(--fill-0, white)"/>
</g>
</svg>
