<svg preserveAspectRatio="none" width="100%" height="100%" overflow="visible" style="display: block;" viewBox="0 0 70.9538 47.3026" fill="none" xmlns="http://www.w3.org/2000/svg">
<g id="LOGO">
<path id="Union" d="M9.4873 5.34082C12.1945 5.34084 14.583 6.70322 16.0215 8.78027L14.1152 9.88867C13.0615 8.46697 11.3822 7.54006 9.4873 7.54004C6.30169 7.54004 3.71094 10.1474 3.71094 13.3516C3.71114 16.5564 6.30181 19.1631 9.4873 19.1631C11.3708 19.1631 13.0412 18.2474 14.0967 16.8398L16.0029 17.9473C14.5627 20.0103 12.1832 21.3623 9.4873 21.3623C5.08983 21.3623 1.52559 17.7758 1.52539 13.3516C1.52539 8.92804 5.0897 5.34082 9.4873 5.34082ZM37.7656 5.34082C42.1889 5.34108 45.7754 8.9283 45.7754 13.3525C45.7754 13.7263 45.7443 14.0925 45.6924 14.4521H32.0752C32.5909 17.1238 34.9452 19.1484 37.7656 19.1484C40.6791 19.1483 42.297 18.2171 43.0791 17.7676L43.2402 17.6758L43.5674 17.4951L45.1455 19.0742C43.8232 20.0393 41.4621 21.3622 37.7656 21.3623C33.3414 21.3623 29.7542 17.7758 29.7539 13.3525C29.7539 8.92814 33.3412 5.34082 37.7656 5.34082ZM25.6543 5.34082C27.1526 5.34082 28.5514 5.74191 29.7559 6.42871L28.4727 8.19434C27.6359 7.74974 26.6753 7.49512 25.6543 7.49512C22.4123 7.49521 19.7737 10.0493 19.7734 13.1875C19.7734 13.2202 19.7784 13.2524 19.7793 13.2842V18.583C19.7766 18.5804 19.7742 18.5778 19.7725 18.5752V20.5996H17.5488V5.77637H19.7725V7.7998C21.2493 6.28923 23.3353 5.34087 25.6543 5.34082ZM63.3213 12.7412C63.3213 12.7454 63.3223 12.7497 63.3223 12.7539C63.3222 12.7581 63.3213 12.7624 63.3213 12.7666V20.1406H61.1221V18.1436C59.6616 19.6522 57.6017 20.5996 55.3115 20.5996C50.887 20.5996 47.3008 17.0867 47.3008 12.7539C47.3008 8.4211 50.8869 4.90921 55.3115 4.90918C57.6017 4.90918 59.6616 5.85565 61.1221 7.36426V0H63.3213V12.7412ZM55.3125 7.06348C52.1074 7.06348 49.5001 9.61618 49.5 12.7539C49.5 15.8926 52.1073 18.4453 55.3125 18.4453C58.5087 18.4451 61.1088 15.9057 61.1221 12.7793V12.7305C61.1089 9.6031 58.5087 7.06368 55.3125 7.06348ZM37.7646 7.55371C34.9441 7.55371 32.5898 9.57919 32.0742 12.252H43.4551C42.9387 9.5792 40.5852 7.55373 37.7646 7.55371Z" fill="var(--fill-0, #160F2D)"/>
<path id="Fill 33" fill-rule="evenodd" clip-rule="evenodd" d="M35.2609 31.4761C37.4251 29.9709 40.2367 30.1178 42.1896 31.6506C39.6659 33.3977 36.0757 35.8983 33.001 38.0455C32.2501 35.6745 33.0959 32.9821 35.2609 31.4761M68.664 26.4001H61.912C59.8867 28.2734 57.701 30.2892 55.7032 32.1236L52.4941 26.4079H46.8638L51.9802 35.522C50.636 36.7403 49.597 37.6666 49.0961 38.0831C46.0077 40.6519 42.6476 41.9929 39.0694 42.0422L39.0703 42.0335C38.8996 42.05 38.7289 42.0482 38.5581 42.05C38.1279 42.0396 37.6778 41.9955 37.239 41.9091C36.8294 41.8184 36.4302 41.6905 36.0491 41.5134C38.828 39.5736 41.9716 37.3823 44.3686 35.7216C44.3695 35.7233 44.3695 35.7242 44.3695 35.725L45.9344 34.6398C46.2008 34.4549 46.4534 34.2812 46.681 34.1248L46.6785 34.1222L48.358 32.9557C48.0597 32.045 47.6329 31.1602 47.0596 30.3324C43.8349 25.6778 37.4174 24.5493 32.7253 27.8137C28.5082 30.7463 27.1312 36.2236 29.2316 40.6822C28.1159 41.4641 27.3063 42.0335 26.9976 42.2547C26.2276 42.8052 25.6043 42.7481 25.4241 42.6367C25.337 42.5822 25.3111 42.3299 25.3611 42.0223L27.208 31.1395C27.6951 28.2682 25.7181 25.9404 22.7926 25.9404H22.6184C20.4043 25.9404 18.2824 27.2754 17.1692 29.1694C16.6993 27.2754 15.0309 25.9404 12.8159 25.9404H12.6305C10.7328 25.9404 8.90579 26.9237 7.72025 28.397L8.06082 26.3897H3.3816L0 46.315H3.87478H4.67836L7.00634 32.6015C7.25034 31.1654 8.63333 30.0015 10.0965 30.0015C11.5597 30.0015 12.5478 31.1654 12.3038 32.6015L9.9758 46.315H13.8627H14.655L16.983 32.6015C17.2261 31.1654 18.61 30.0015 20.0732 30.0015C21.5363 30.0015 22.5244 31.1654 22.2804 32.6015L21.5743 36.7628C21.3587 38.0105 21.0268 39.9486 20.8242 41.1678C20.4534 43.3996 21.2785 45.457 22.9995 46.5318C23.8247 47.0486 24.78 47.3026 25.7707 47.3026C27.0786 47.3026 28.4487 46.8593 29.661 45.9909C29.9541 45.781 30.8396 45.158 32.07 44.2957C33.9281 45.7827 36.2353 46.55 38.5737 46.5267C38.7202 46.5293 38.8625 46.5336 39.0194 46.5336C43.6702 46.5336 48.1304 44.8538 52.0216 41.6162C52.457 41.255 53.252 40.5517 54.2823 39.6237L58.0347 46.3089H63.6658L58.0097 36.2314C61.4921 33.0421 65.6911 29.1573 68.664 26.4001M68.2835 41.1992C66.8088 41.1992 65.6133 42.3948 65.6133 43.8695C65.6133 45.3442 66.8088 46.5398 68.2835 46.5398C69.7591 46.5398 70.9538 45.3442 70.9538 43.8695C70.9538 42.3948 69.7591 41.1992 68.2835 41.1992" fill="var(--fill-0, #160F2D)"/>
</g>
</svg>
