<svg preserveAspectRatio="none" width="100%" height="100%" overflow="visible" style="display: block;" viewBox="0 0 357.453 62.4867" fill="none" xmlns="http://www.w3.org/2000/svg">
<g id="&#231;&#188;&#150;&#231;&#187;&#132;">
<path id="Fill 1" fill-rule="evenodd" clip-rule="evenodd" d="M158.942 13.9404C146.114 13.9404 135.715 24.3393 135.715 37.1674C135.715 49.9955 146.114 60.3944 158.942 60.3944C171.768 60.3944 182.169 49.9955 182.169 37.1674C182.169 24.3393 171.768 13.9404 158.942 13.9404M158.943 20.3164C168.233 20.3164 175.793 27.8743 175.793 37.1666C175.793 46.4574 168.233 54.0169 158.943 54.0169C149.65 54.0169 142.091 46.4574 142.091 37.1666C142.091 27.8743 149.65 20.3164 158.943 20.3164" fill="var(--fill-0, white)"/>
<path id="Fill 3" fill-rule="evenodd" clip-rule="evenodd" d="M178.567 60.1937L188.892 0.000976562H182.42L172.096 60.1937H178.567Z" fill="var(--fill-0, white)"/>
<mask id="mask0_0_7" style="mask-type:luminance" maskUnits="userSpaceOnUse" x="0" y="0" width="358" height="63">
<path id="Clip 6" fill-rule="evenodd" clip-rule="evenodd" d="M0 62.4867H357.453V0H0V62.4867Z" fill="var(--fill-0, white)"/>
</mask>
<g mask="url(#mask0_0_7)">
<path id="Fill 5" fill-rule="evenodd" clip-rule="evenodd" d="M48.5916 59.1084H54.9636V15.2266H48.5916V59.1084Z" fill="var(--fill-0, white)"/>
<path id="Fill 7" fill-rule="evenodd" clip-rule="evenodd" d="M71.8201 20.3172C74.7451 20.3172 77.4975 21.0678 79.8971 22.3858L83.5727 17.1575C80.1225 15.1263 76.1143 13.9404 71.8201 13.9404C58.9921 13.9404 48.5947 24.3393 48.5947 37.1674C48.5947 43.3607 51.0332 48.9744 54.9839 53.138V37.4534C54.9839 37.357 54.9699 37.2638 54.9699 37.1674C54.9699 27.8766 62.5294 20.3172 71.8201 20.3172" fill="var(--fill-0, white)"/>
<path id="Fill 8" fill-rule="evenodd" clip-rule="evenodd" d="M106.686 20.3576C114.864 20.3576 121.688 26.2307 123.183 33.9798H90.1883C91.6834 26.2307 98.5077 20.3576 106.686 20.3576V20.3576ZM129.673 40.3582C129.823 39.3154 129.911 38.2523 129.911 37.1675C129.911 24.3395 119.512 13.9406 106.684 13.9406C93.8577 13.9406 83.4588 24.3395 83.4588 37.1675C83.4588 49.9956 93.8577 60.3945 106.684 60.3945C117.403 60.3945 124.251 56.5573 128.087 53.7582L123.508 49.1797L122.56 49.705L122.094 49.9707C119.828 51.2762 115.136 53.9758 106.684 53.9758C98.5062 53.9758 91.6819 48.1042 90.1868 40.3551H123.188C123.186 40.3567 123.186 40.3567 123.186 40.3582H129.673Z" fill="var(--fill-0, white)"/>
<path id="Fill 9" fill-rule="evenodd" clip-rule="evenodd" d="M36.6735 47.282C33.5947 51.3633 28.7224 54.0178 23.2269 54.0178C13.9361 54.0178 6.37662 46.4599 6.37662 37.1675C6.37662 27.8767 13.9361 20.3173 23.2269 20.3173C28.7535 20.3173 33.6522 23.0029 36.7279 27.1261L42.2887 23.9152C38.0924 17.8912 31.1251 13.9406 23.2269 13.9406C10.3988 13.9406 -0.000108507 24.3395 -0.000108507 37.1675C-0.000108507 49.9956 10.3988 60.3945 23.2269 60.3945C31.0925 60.3945 38.0334 56.4749 42.2343 50.4929L36.6735 47.282Z" fill="var(--fill-0, white)"/>
<path id="Fill 10" fill-rule="evenodd" clip-rule="evenodd" d="M252.437 62.4875C250.132 62.4875 247.909 61.8985 245.988 60.6987C241.983 58.2011 240.062 53.4252 240.926 48.2421C241.666 43.7987 243.155 35.2244 243.155 35.2244L253.675 36.9573C253.675 36.9573 252.23 45.7352 251.487 50.1863C251.364 50.9214 251.423 51.5229 251.63 51.6519C252.048 51.913 253.501 52.0451 255.292 50.7676C258.563 48.427 285.848 29.4165 295.063 23.0957L301.094 31.8892C291.281 38.6187 264.345 57.4008 261.49 59.4414C258.669 61.4571 255.481 62.4875 252.437 62.4875" fill="var(--fill-0, white)"/>
<path id="Fill 11" fill-rule="evenodd" clip-rule="evenodd" d="M282.733 60.6863L283.388 50.2532C278.678 50.7039 273.892 48.6975 271.023 44.5665C266.78 38.4524 268.348 30.0226 274.523 25.7363C280.697 21.4499 289.144 22.931 293.387 29.0451C294.784 31.0577 295.538 33.3206 295.718 35.6052L305 29.1741C304.305 27.0573 303.31 25.0043 301.977 23.0818C294.475 12.2741 279.541 9.65534 268.621 17.2334C257.702 24.8115 254.931 39.7191 262.431 50.5283C267.187 57.3775 274.924 60.9241 282.733 60.6863" fill="var(--fill-0, white)"/>
<path id="Fill 12" fill-rule="evenodd" clip-rule="evenodd" d="M245.507 12.8849H245.101C239.948 12.8849 235.012 15.9839 232.422 20.3822C231.328 15.9839 227.444 12.8849 222.291 12.8849H221.862C217.443 12.8849 213.193 15.168 210.434 18.5872L211.227 13.9278H200.338L192.468 60.1937H201.485H203.355L208.773 28.3504C209.34 25.0167 212.559 22.314 215.964 22.314C219.367 22.314 221.667 25.0167 221.1 28.3504L215.684 60.1937H224.726H226.571L231.989 28.3504C232.556 25.0167 235.775 22.314 239.178 22.314C242.583 22.314 244.884 25.0167 244.316 28.3504L241.239 46.4347C241.239 46.4347 244.086 60.1937 249.787 60.1937L255.781 24.9577C256.916 18.2903 252.316 12.8849 245.507 12.8849Z" fill="var(--fill-0, white)"/>
<path id="Fill 13" fill-rule="evenodd" clip-rule="evenodd" d="M357.455 55.5534C357.455 58.9228 354.721 61.6566 351.35 61.6566C347.98 61.6566 345.248 58.9228 345.248 55.5534C345.248 52.1824 347.98 49.4502 351.35 49.4502C354.721 49.4502 357.455 52.1824 357.455 55.5534" fill="var(--fill-0, white)"/>
<path id="Fill 14" fill-rule="evenodd" clip-rule="evenodd" d="M336.539 13.9502C324.571 24.9941 310.182 38.2029 306.716 41.0797C299.255 47.2699 291.117 50.4248 282.434 50.3036C281.213 50.285 279.899 50.1762 278.659 49.8871L277.293 60.2223C279.257 60.5829 280.97 60.701 283.269 60.701C294.09 60.701 304.468 56.8016 313.525 49.2841C318.108 45.4811 339.8 25.4728 352.25 13.9502H336.539Z" fill="var(--fill-0, white)"/>
<path id="Fill 15" fill-rule="evenodd" clip-rule="evenodd" d="M301.521 13.9688L327.517 60.1787H340.62L314.625 13.9688H301.521Z" fill="var(--fill-0, white)"/>
</g>
</g>
</svg>
