<svg width="511" height="124" viewBox="0 0 511 124" fill="none" xmlns="http://www.w3.org/2000/svg">
<path fill-rule="evenodd" clip-rule="evenodd" d="M230.926 41.043C215.275 41.043 202.587 53.7559 202.587 69.4386C202.587 85.1213 215.275 97.8343 230.926 97.8343C246.576 97.8343 259.266 85.1213 259.266 69.4386C259.266 53.7559 246.576 41.043 230.926 41.043M230.926 48.8398C242.262 48.8398 251.486 58.0796 251.486 69.4398C251.486 80.798 242.262 90.0397 230.926 90.0397C219.589 90.0397 210.365 80.798 210.365 69.4398C210.365 58.0796 219.589 48.8398 230.926 48.8398" fill="white"/>
<path fill-rule="evenodd" clip-rule="evenodd" d="M254.872 97.5874L267.468 24H259.572L246.976 97.5874H254.872Z" fill="white"/>
<mask id="mask0_1847_38646" style="mask-type:luminance" maskUnits="userSpaceOnUse" x="37" y="24" width="437" height="77">
<path fill-rule="evenodd" clip-rule="evenodd" d="M37 100.392H473.134V24H37V100.392Z" fill="white"/>
</mask>
<g mask="url(#mask0_1847_38646)">
<path fill-rule="evenodd" clip-rule="evenodd" d="M96.2881 96.2621H104.063V42.6152H96.2881V96.2621Z" fill="white"/>
<path fill-rule="evenodd" clip-rule="evenodd" d="M124.627 48.8387C128.196 48.8387 131.554 49.7564 134.482 51.3676L138.966 44.976C134.757 42.4927 129.866 41.043 124.627 41.043C108.975 41.043 96.2891 53.7559 96.2891 69.4386C96.2891 77.0102 99.2643 83.873 104.085 88.9632V69.7882C104.085 69.6704 104.068 69.5564 104.068 69.4386C104.068 58.0804 113.291 48.8387 124.627 48.8387" fill="white"/>
<path fill-rule="evenodd" clip-rule="evenodd" d="M167.167 48.8867C177.145 48.8867 185.472 56.0669 187.296 65.5403H147.038C148.863 56.0669 157.189 48.8867 167.167 48.8867V48.8867ZM195.216 73.3394C195.399 72.0645 195.507 70.7648 195.507 69.4386C195.507 53.7559 182.819 41.043 167.167 41.043C151.517 41.043 138.829 53.7559 138.829 69.4386C138.829 85.1213 151.517 97.8343 167.167 97.8343C180.246 97.8343 188.6 93.1432 193.28 89.7213L187.694 84.1238L186.537 84.766L185.968 85.0909C183.204 86.6869 177.479 89.9873 167.167 89.9873C157.189 89.9873 148.862 82.809 147.038 73.3356H187.303C187.302 73.3375 187.302 73.3375 187.302 73.3394H195.216Z" fill="white"/>
<path fill-rule="evenodd" clip-rule="evenodd" d="M81.746 81.8039C77.9895 86.7933 72.0448 90.0386 65.3396 90.0386C54.0037 90.0386 44.7803 80.7988 44.7803 69.4386C44.7803 58.0804 54.0037 48.8387 65.3396 48.8387C72.0827 48.8387 78.0597 52.1219 81.8124 57.1627L88.5972 53.2372C83.4773 45.8728 74.9764 41.043 65.3396 41.043C49.6879 41.043 37 53.7559 37 69.4386C37 85.1213 49.6879 97.8343 65.3396 97.8343C74.9365 97.8343 83.4052 93.0425 88.5308 85.7293L81.746 81.8039Z" fill="white"/>
<path fill-rule="evenodd" clip-rule="evenodd" d="M345.002 100.392C342.19 100.392 339.478 99.672 337.135 98.2052C332.248 95.1518 329.904 89.3131 330.959 82.9766C331.861 77.5444 333.678 67.0621 333.678 67.0621L346.514 69.1806C346.514 69.1806 344.75 79.9118 343.844 85.3535C343.694 86.2522 343.766 86.9875 344.018 87.1452C344.528 87.4644 346.301 87.6259 348.486 86.0641C352.477 83.2027 385.768 59.9617 397.011 52.2344L404.37 62.9846C392.397 71.2117 359.531 94.1733 356.048 96.6681C352.606 99.1324 348.717 100.392 345.002 100.392" fill="#C5FB00"/>
<path fill-rule="evenodd" clip-rule="evenodd" d="M381.965 98.1912L382.764 85.4364C377.018 85.9874 371.177 83.5345 367.677 78.4843C362.5 71.0096 364.414 60.704 371.947 55.4637C379.481 50.2235 389.787 52.0342 394.964 59.5089C396.669 61.9694 397.589 64.7358 397.809 67.5288L409.133 59.6666C408.285 57.0787 407.072 54.5688 405.445 52.2185C396.292 39.0058 378.07 35.8043 364.747 45.0688C351.424 54.3332 348.043 72.5581 357.194 85.7727C362.997 94.1461 372.437 98.4819 381.965 98.1912" fill="#C5FB00"/>
<path fill-rule="evenodd" clip-rule="evenodd" d="M336.548 39.752H336.053C329.765 39.752 323.742 43.5406 320.583 48.9176C319.248 43.5406 314.509 39.752 308.221 39.752H307.698C302.307 39.752 297.121 42.5431 293.755 46.7231L294.722 41.0269H281.437L271.834 97.5883H282.836H285.117L291.728 58.659C292.42 54.5834 296.347 51.2793 300.502 51.2793C304.654 51.2793 307.461 54.5834 306.769 58.659L300.16 97.5883H311.193H313.444L320.054 58.659C320.746 54.5834 324.673 51.2793 328.826 51.2793C332.981 51.2793 335.787 54.5834 335.095 58.659L331.34 80.7675C331.34 80.7675 334.814 97.5883 341.77 97.5883L349.084 54.5112C350.468 46.3602 344.855 39.752 336.548 39.752" fill="#C5FB00"/>
<path fill-rule="evenodd" clip-rule="evenodd" d="M473.134 91.9145C473.134 96.0337 469.799 99.3758 465.686 99.3758C461.575 99.3758 458.241 96.0337 458.241 91.9145C458.241 87.7933 461.575 84.4531 465.686 84.4531C469.799 84.4531 473.134 87.7933 473.134 91.9145" fill="#C5FB00"/>
<path fill-rule="evenodd" clip-rule="evenodd" d="M447.617 41.0547C433.014 54.5562 415.459 70.7044 411.23 74.2213C402.126 81.789 392.197 85.6461 381.603 85.4979C380.112 85.4751 378.51 85.3421 376.997 84.9887L375.33 97.6237C377.727 98.0645 379.817 98.2089 382.621 98.2089C395.825 98.2089 408.486 93.4418 419.538 84.2515C425.13 79.6021 451.596 55.1414 466.787 41.0547H447.617Z" fill="#C5FB00"/>
<path fill-rule="evenodd" clip-rule="evenodd" d="M404.89 41.0781L436.608 97.5712H452.596L420.879 41.0781H404.89Z" fill="#C5FB00"/>
</g>
</svg>
