<svg width="24" height="24" viewBox="0 0 24 24" fill="none" xmlns="http://www.w3.org/2000/svg">
<rect width="24" height="24" rx="12" fill="#3B3B4A"/>
<path d="M17.6569 10.7488C18.3472 10.7488 18.9067 11.3084 18.9067 11.9987C18.9067 12.6891 18.3472 13.2486 17.6569 13.2486L13.2506 13.2479V17.6563C13.2504 18.3464 12.6908 18.9059 12.0007 18.9061C11.3104 18.9061 10.751 18.3465 10.7508 17.6563V13.2479L6.34315 13.2486C5.65279 13.2486 5.09328 12.6891 5.09328 11.9987C5.09328 11.3084 5.65279 10.7488 6.34315 10.7488L10.7508 10.7481V6.34254C10.7508 5.65219 11.3103 5.09268 12.0007 5.09268C12.6909 5.09285 13.2506 5.65229 13.2506 6.34254V10.7481L17.6569 10.7488Z" fill="white"/>
</svg>
