<svg width="24" height="24" viewBox="0 0 24 24" fill="none" xmlns="http://www.w3.org/2000/svg">
<g clip-path="url(#clip0_1286_10020)">
<circle cx="12" cy="12" r="12" fill="#A99BFF"/>
<path d="M11.4082 5.71964C11.7156 5.54398 12.093 5.54397 12.4004 5.71964L17.7109 8.75382C18.6008 9.26263 18.2399 10.6216 17.2148 10.622H16.2256V15.8085H16.6582C17.6129 15.8085 18.3867 16.5823 18.3867 17.537C18.3866 18.0143 17.9998 18.4013 17.5225 18.4013H6.28613C5.80886 18.4012 5.42196 18.0143 5.42188 17.537C5.42188 16.5823 6.19574 15.8086 7.15039 15.8085H7.58203V10.622H6.59375C5.56865 10.6217 5.20767 9.26262 6.09766 8.75382L11.4082 5.71964ZM9.31055 15.8085H11.04V10.622H9.31055V15.8085ZM12.7686 15.8085H14.4971V10.622H12.7686V15.8085Z" fill="#F3F3FB"/>
</g>
<defs>
<clipPath id="clip0_1286_10020">
<rect width="24" height="24" fill="white"/>
</clipPath>
</defs>
</svg>
