<svg width="24" height="24" viewBox="0 0 24 24" fill="none" xmlns="http://www.w3.org/2000/svg">
<circle cx="12" cy="12" r="12" fill="#A99BFF"/>
<path d="M16.9653 7H7.03468C5.91277 7 5 7.91683 5 9.04373V10.1221H19V9.04373C19 7.91683 18.0872 7 16.9653 7ZM5 15.9563C5 17.0832 5.91275 18 7.03468 18H16.9653C18.0873 18 19 17.0832 19 15.9563V11.6472H12H5V15.9563ZM13.4477 14.85H16.3594C16.651 14.85 16.8874 15.0991 16.8874 15.4063C16.8874 15.7135 16.651 15.9626 16.3594 15.9626H13.4477C13.1561 15.9626 12.9198 15.7135 12.9198 15.4063C12.9198 15.0991 13.1561 14.85 13.4477 14.85Z" fill="white"/>
</svg>
