<svg width="24" height="24" viewBox="0 0 24 24" fill="none" xmlns="http://www.w3.org/2000/svg">
<rect width="24" height="24" rx="12" fill="#3B3B4A"/>
<path d="M15.1161 7.11612C15.6043 6.62796 16.3955 6.62796 16.8837 7.11612C17.3718 7.60427 17.3718 8.39554 16.8837 8.88369L13.7675 11.9999L16.8837 15.1161C17.3718 15.6043 17.3718 16.3955 16.8837 16.8837C16.3955 17.3718 15.6043 17.3718 15.1161 16.8837L11.9999 13.7675L8.88369 16.8837C8.39554 17.3718 7.60427 17.3718 7.11612 16.8837C6.62796 16.3955 6.62796 15.6043 7.11612 15.1161L10.2323 11.9999L7.11612 8.88369C6.62796 8.39554 6.62796 7.60427 7.11612 7.11612C7.60427 6.62796 8.39554 6.62796 8.88369 7.11612L11.9999 10.2323L15.1161 7.11612Z" fill="white"/>
</svg>
