<svg width="24" height="24" viewBox="0 0 24 24" fill="none" xmlns="http://www.w3.org/2000/svg">
<rect width="24" height="24" rx="12" fill="#3B3B4A"/>
<path d="M10.5 6H8C6.89543 6 6 6.89543 6 8V16C6 17.1046 6.89543 18 8 18H16C17.1046 18 18 17.1046 18 16V13.5" stroke="white" stroke-width="2.5" stroke-linecap="round" stroke-linejoin="round"/>
<path d="M18.1339 7.63388C18.622 7.14573 18.622 6.35427 18.1339 5.86612C17.6457 5.37796 16.8543 5.37796 16.3661 5.86612L17.25 6.75L18.1339 7.63388ZM12.1161 10.1161L11.2322 11L13 12.7678L13.8839 11.8839L13 11L12.1161 10.1161ZM17.25 6.75L16.3661 5.86612L12.1161 10.1161L13 11L13.8839 11.8839L18.1339 7.63388L17.25 6.75Z" fill="white"/>
<path fill-rule="evenodd" clip-rule="evenodd" d="M9.17773 14.7672C8.9007 14.4899 8.92181 13.2552 9.40997 12.767L10.1775 11.9996L11.9453 13.7674L11.1777 14.5348C10.6896 15.023 9.49415 15.0839 9.17773 14.7672Z" fill="white"/>
</svg>
