<svg width="20" height="20" viewBox="0 0 20 20" fill="none" xmlns="http://www.w3.org/2000/svg">
<rect width="20" height="20" rx="10" fill="#5338FF"/>
<path d="M9.2793 4.72266C11.7158 4.72279 13.6904 6.69825 13.6904 9.13477C13.6904 10.0642 13.4019 10.9257 12.9111 11.6367L14.8428 13.5693C15.2333 13.9599 15.2333 14.5929 14.8428 14.9834C14.4522 15.3735 13.8191 15.3738 13.4287 14.9834L11.4307 12.9854C10.7941 13.3417 10.0607 13.5459 9.2793 13.5459C6.84278 13.5459 4.86732 11.5713 4.86719 9.13477C4.86719 6.69816 6.84269 4.72266 9.2793 4.72266ZM9.2793 6.72266C7.94726 6.72266 6.86719 7.80273 6.86719 9.13477C6.86732 10.4667 7.94735 11.5459 9.2793 11.5459C10.6111 11.5458 11.6903 10.4666 11.6904 9.13477C11.6904 7.80282 10.6112 6.72279 9.2793 6.72266Z" fill="white"/>
</svg>
