<svg width="48" height="48" viewBox="0 0 48 48" fill="none" xmlns="http://www.w3.org/2000/svg">
<rect width="48" height="48" rx="24" fill="#3B3B4A"/>
<path d="M23.999 34.8516C24.8313 34.8516 25.5066 35.5262 25.5068 36.3584C25.5068 37.1908 24.8314 37.8662 23.999 37.8662C23.1668 37.866 22.4922 37.1907 22.4922 36.3584C22.4924 35.5263 23.1669 34.8518 23.999 34.8516ZM15.2568 31.2344C16.0891 31.2344 16.7644 31.909 16.7646 32.7412C16.7646 33.5736 16.0893 34.249 15.2568 34.249C14.4246 34.2488 13.75 33.5735 13.75 32.7412C13.7502 31.9091 14.4247 31.2346 15.2568 31.2344ZM32.7412 31.2344C33.5735 31.2344 34.2488 31.909 34.249 32.7412C34.249 33.5736 33.5736 34.249 32.7412 34.249C31.909 34.2488 31.2344 33.5735 31.2344 32.7412C31.2346 31.9091 31.9091 31.2346 32.7412 31.2344ZM23.999 14.999C28.9696 14.999 32.999 19.0285 32.999 23.999C32.999 28.9696 28.9696 32.999 23.999 32.999C19.0285 32.999 14.999 28.9696 14.999 23.999C14.999 19.0285 19.0285 14.999 23.999 14.999ZM23.999 16.999C20.133 16.999 16.999 20.133 16.999 23.999C16.999 27.865 20.133 30.999 23.999 30.999C27.865 30.999 30.999 27.865 30.999 23.999C30.999 20.133 27.865 16.999 23.999 16.999ZM11.6396 22.4922C12.4719 22.4922 13.1472 23.1668 13.1475 23.999C13.1475 24.8314 12.4721 25.5068 11.6396 25.5068C10.8074 25.5066 10.1328 24.8313 10.1328 23.999C10.133 23.1669 10.8075 22.4924 11.6396 22.4922ZM36.3584 22.4922C37.1907 22.4922 37.866 23.1668 37.8662 23.999C37.8662 24.8314 37.1908 25.5068 36.3584 25.5068C35.5262 25.5066 34.8516 24.8313 34.8516 23.999C34.8518 23.1669 35.5263 22.4924 36.3584 22.4922ZM15.2568 13.75C16.0891 13.75 16.7644 14.4246 16.7646 15.2568C16.7646 16.0893 16.0893 16.7646 15.2568 16.7646C14.4246 16.7644 13.75 16.0891 13.75 15.2568C13.7502 14.4247 14.4247 13.7502 15.2568 13.75ZM32.7412 13.75C33.5735 13.75 34.2488 14.4246 34.249 15.2568C34.249 16.0893 33.5736 16.7646 32.7412 16.7646C31.909 16.7644 31.2344 16.0891 31.2344 15.2568C31.2346 14.4247 31.9091 13.7502 32.7412 13.75ZM23.999 10.1328C24.8313 10.1328 25.5066 10.8074 25.5068 11.6396C25.5068 12.4721 24.8314 13.1475 23.999 13.1475C23.1668 13.1472 22.4922 12.4719 22.4922 11.6396C22.4924 10.8075 23.1669 10.133 23.999 10.1328Z" fill="white"/>
</svg>
