<svg width="48" height="48" viewBox="0 0 48 48" fill="none" xmlns="http://www.w3.org/2000/svg">
<rect width="48" height="48" rx="24" fill="#3B3B4A"/>
<path d="M28.5 11C31.5523 11 33.9999 13.5092 34 16.5713V31.4287C33.9999 34.4908 31.5523 37 28.5 37H19.5C16.4477 37 14.0001 34.4908 14 31.4287V16.5713C14.0001 13.5092 16.4477 11 19.5 11H28.5ZM19.5 13C17.5818 13 16.0001 14.584 16 16.5713V31.4287C16.0001 33.416 17.5818 35 19.5 35H28.5C30.4182 35 31.9999 33.416 32 31.4287V16.5713C31.9999 14.584 30.4182 13 28.5 13H19.5ZM28 30C28.5523 30 29 30.4477 29 31C29 31.5523 28.5523 32 28 32H20C19.4477 32 19 31.5523 19 31C19 30.4477 19.4477 30 20 30H28ZM26 16C26.5523 16 27 16.4477 27 17C27 17.5523 26.5523 18 26 18H22C21.4477 18 21 17.5523 21 17C21 16.4477 21.4477 16 22 16H26Z" fill="white"/>
</svg>
