<svg width="24" height="24" viewBox="0 0 24 24" fill="none" xmlns="http://www.w3.org/2000/svg">
<rect width="24" height="24" rx="12" fill="#3B3B4A"/>
<path d="M12.0342 5L12.0342 3.75H12.0342V5ZM17.1309 12.9473H15.8809C15.8809 13.0628 15.8969 13.1778 15.9285 13.2889L17.1309 12.9473ZM17.8174 15.3633L16.615 15.7049L16.615 15.7051L17.8174 15.3633ZM6.66016 16L6.65943 17.25H6.66016V16ZM6.17969 15.3633L7.38222 15.7045L7.38225 15.7044L6.17969 15.3633ZM6.9375 12.6914L8.14007 13.0325C8.17154 12.9215 8.1875 12.8067 8.1875 12.6914H6.9375ZM12.0342 5L12.0342 6.25C14.1586 6.25001 15.8809 7.97224 15.8809 10.0967H17.1309H18.3809C18.3809 6.59152 15.5393 3.75001 12.0342 3.75L12.0342 5ZM17.1309 10.0967H15.8809V12.9473H17.1309H18.3809V10.0967H17.1309ZM17.1309 12.9473L15.9285 13.2889L16.615 15.7049L17.8174 15.3633L19.0198 15.0216L18.3333 12.6056L17.1309 12.9473ZM17.8174 15.3633L16.615 15.7051C16.4794 15.2279 16.8373 14.75 17.3369 14.75V16V17.25C18.5004 17.25 19.3369 16.1372 19.0197 15.0215L17.8174 15.3633ZM17.3369 16V14.75H6.66016V16V17.25H17.3369V16ZM6.66016 16L6.66088 14.75C7.15995 14.7503 7.51761 15.2273 7.38222 15.7045L6.17969 15.3633L4.97716 15.0221C4.66068 16.1375 5.49706 17.2493 6.65943 17.25L6.66016 16ZM6.17969 15.3633L7.38225 15.7044L8.14007 13.0325L6.9375 12.6914L5.73493 12.3503L4.97712 15.0222L6.17969 15.3633ZM6.9375 12.6914H8.1875V10.0967H6.9375H5.6875V12.6914H6.9375ZM6.9375 10.0967H8.1875C8.1875 7.97223 9.90973 6.25 12.0342 6.25V5V3.75C8.52902 3.75 5.6875 6.59152 5.6875 10.0967H6.9375Z" fill="white"/>
<path d="M14 19C13.4781 19.496 12.7743 19.8 12 19.8C11.2257 19.8 10.5219 19.496 10 19" stroke="white" stroke-width="2" stroke-linecap="round" stroke-linejoin="round"/>
</svg>
