<svg width="24" height="24" viewBox="0 0 24 24" fill="none" xmlns="http://www.w3.org/2000/svg">
<rect width="24" height="24" rx="12" fill="#3B3B4A"/>
<path d="M12 16.125C12.8284 16.125 13.5 16.7966 13.5 17.625C13.5 18.4534 12.8284 19.125 12 19.125C11.1716 19.125 10.5 18.4534 10.5 17.625C10.5 16.7966 11.1716 16.125 12 16.125ZM12 4.875C14.3472 4.875 16.25 6.77779 16.25 9.125C16.25 10.4807 15.614 11.6887 14.6289 12.4648C14.1979 12.8044 13.8321 13.115 13.5723 13.4346C13.3179 13.7474 13.25 13.9656 13.25 14.125V14.625H10.75V14.125C10.75 13.18 11.1756 12.4186 11.6318 11.8574C12.0825 11.3031 12.6445 10.8449 13.0811 10.501C13.4904 10.1785 13.75 9.68234 13.75 9.125C13.75 8.1585 12.9665 7.375 12 7.375C11.0335 7.375 10.25 8.1585 10.25 9.125C10.25 9.81536 9.69036 10.375 9 10.375C8.30964 10.375 7.75 9.81536 7.75 9.125C7.75 6.77779 9.65279 4.875 12 4.875Z" fill="white"/>
</svg>
