<svg width="24" height="24" viewBox="0 0 24 24" fill="none" xmlns="http://www.w3.org/2000/svg">
<rect width="24" height="24" rx="12" fill="#3B3B4A"/>
<path d="M11.9414 4.75C12.6318 4.75 13.1914 5.30964 13.1914 6C13.1914 6.69036 12.6318 7.25 11.9414 7.25C10.5347 7.25 9.27194 7.86022 8.40039 8.83398C7.64766 9.67514 7.19141 10.7828 7.19141 12C7.19141 14.6234 9.31805 16.75 11.9414 16.75C14.0265 16.75 15.7955 15.4057 16.4346 13.5371L16.1699 13.7246C15.6055 14.1219 14.8261 13.9862 14.4287 13.4219C14.0316 12.8575 14.1672 12.078 14.7314 11.6807L17.2949 9.875L17.3965 9.81055C17.9107 9.51719 18.5695 9.62494 18.9629 10.082L21.0088 12.459C21.4587 12.9822 21.3989 13.7714 20.876 14.2217C20.3527 14.6716 19.5635 14.6129 19.1133 14.0898L18.9404 13.8887C18.1092 16.9766 15.2919 19.25 11.9414 19.25C7.93734 19.25 4.69141 16.0041 4.69141 12C4.69141 10.1439 5.39082 8.44785 6.53809 7.16602C7.86381 5.68498 9.79425 4.75 11.9414 4.75Z" fill="white"/>
</svg>
