<svg width="24" height="24" viewBox="0 0 24 24" fill="none" xmlns="http://www.w3.org/2000/svg">
<rect width="24" height="24" rx="12" fill="#3B3B4A"/>
<path d="M10.5 5.25C13.3995 5.25 15.75 7.60051 15.75 10.5C15.75 11.5405 15.4459 12.5094 14.9238 13.3252C15.0916 13.3856 15.2494 13.4818 15.3838 13.6162L18.3838 16.6162C18.8716 17.1044 18.8718 17.8957 18.3838 18.3838C17.8957 18.8718 17.1044 18.8716 16.6162 18.3838L13.6162 15.3838C13.4818 15.2494 13.3856 15.0916 13.3252 14.9238C12.5094 15.4459 11.5405 15.75 10.5 15.75C7.60051 15.75 5.25 13.3995 5.25 10.5C5.25 7.60051 7.60051 5.25 10.5 5.25ZM10.5 7.75C8.98122 7.75 7.75 8.98122 7.75 10.5C7.75 12.0188 8.98122 13.25 10.5 13.25C12.0188 13.25 13.25 12.0188 13.25 10.5C13.25 8.98122 12.0188 7.75 10.5 7.75Z" fill="white"/>
</svg>
