<svg preserveAspectRatio="none" width="100%" height="100%" overflow="visible" style="display: block;" viewBox="0 0 32 32" fill="none" xmlns="http://www.w3.org/2000/svg">
<g id="Group 1000006546">
<rect id="Rectangle 482" width="32" height="32" rx="7.57895" fill="var(--fill-0, white)"/>
<path id="Vector" d="M12.6448 24.0911C11.0129 22.7122 10.8 20.2623 12.1695 18.6188L20.6949 8.38751C22.0645 6.74427 24.4974 6.52989 26.1295 7.90894C27.7614 9.28779 27.9743 11.7377 26.605 13.3812L18.0793 23.6123C16.7098 25.2558 14.2768 25.4701 12.6448 24.0911Z" fill="var(--fill-0, #2256FF)"/>
<path id="Vector_2" d="M4.5 14.3762C4.5 12.2459 6.2269 10.519 8.35714 10.519C10.4874 10.519 12.2143 12.2459 12.2143 14.3762C12.2143 16.5064 10.4874 18.2333 8.35714 18.2333C6.2269 18.2333 4.5 16.5064 4.5 14.3762Z" fill="var(--fill-0, #03D7AC)"/>
</g>
</svg>
