<svg preserveAspectRatio="none" width="100%" height="100%" overflow="visible" style="display: block;" viewBox="0 0 27.3281 11" fill="none" xmlns="http://www.w3.org/2000/svg">
<g id="&#229;&#155;&#190;&#229;&#177;&#130;_1" clip-path="url(#clip0_0_140)">
<path id="Vector" d="M0 3.94496H3.44517V4.91375H1.02452V6.23131H3.20252V7.19964H1.02452V9.36449H0V3.94496Z" fill="var(--fill-0, #2D2D38)"/>
<path id="Vector_2" d="M6.81432 5.65488V6.14174C6.81432 6.14174 7.12886 5.53608 8.02127 5.53608C8.6616 5.53608 9.4174 5.97183 9.4174 7.11859V9.36683H8.42344V7.23425C8.41857 7.03267 8.33489 6.84098 8.19026 6.70013C8.04564 6.55928 7.85154 6.48043 7.64944 6.48043C7.44733 6.48043 7.25323 6.55928 7.10861 6.70013C6.96398 6.84098 6.8803 7.03267 6.87543 7.23425V9.36458H5.88102V5.65488H6.81432Z" fill="var(--fill-0, #2D2D38)"/>
<path id="Vector_3" d="M10.3961 7.85645V6.64603H9.74365V5.65528H10.3961V4.51928H11.3905V5.65483H12.3009V6.64558H11.3905V7.64978C11.3904 7.97188 11.5182 8.28092 11.746 8.50917L12.3009 9.06507L11.5981 9.76666L10.9003 9.07045C10.5776 8.74841 10.3963 8.31177 10.3961 7.85645Z" fill="var(--fill-0, #2D2D38)"/>
<path id="Vector_4" d="M14.6936 5.53395C14.3017 5.53324 13.9184 5.64853 13.5922 5.86524C13.266 6.08195 13.0116 6.39033 12.8611 6.75135C12.7107 7.11238 12.6709 7.50982 12.7469 7.89338C12.823 8.27695 13.0113 8.6294 13.2882 8.90612C13.5651 9.18284 13.918 9.37141 14.3023 9.44795C14.6866 9.52449 15.0851 9.48556 15.4472 9.3361C15.8094 9.18664 16.1189 8.93336 16.3367 8.60831C16.5545 8.28326 16.6708 7.90106 16.6708 7.51007C16.6707 6.98662 16.4624 6.4846 16.0918 6.11414C15.7211 5.74367 15.2183 5.53502 14.6936 5.53395ZM14.6936 8.53758C14.1544 8.53758 13.7145 8.07807 13.7145 7.51186C13.7145 6.94565 14.1531 6.48614 14.6936 6.48614C15.2342 6.48614 15.6728 6.94565 15.6728 7.51186C15.6728 8.07807 15.2329 8.53578 14.6936 8.53578V8.53758Z" fill="var(--fill-0, #2D2D38)"/>
<path id="Vector_5" d="M19.1536 5.53395C18.8064 5.53366 18.4654 5.6249 18.165 5.79844V5.65409H17.1728V11.0001H18.1668V9.22168C18.4299 9.37286 18.7244 9.46165 19.0274 9.48118C19.3304 9.5007 19.6339 9.45045 19.9143 9.3343C20.1947 9.21815 20.4446 9.03922 20.6447 8.81133C20.8448 8.58344 20.9896 8.31271 21.0681 8.02006C21.1465 7.72741 21.1565 7.42067 21.0971 7.12358C21.0378 6.82648 20.9108 6.54697 20.7259 6.30666C20.541 6.06635 20.3032 5.87168 20.0309 5.73769C19.7586 5.60371 19.459 5.53399 19.1553 5.53395H19.1536ZM19.1536 8.53399C18.6143 8.53399 18.1744 8.07537 18.1744 7.51006C18.1744 6.94475 18.613 6.48614 19.1536 6.48614C19.6941 6.48614 20.1309 6.94431 20.1309 7.51006C20.1309 8.07582 19.6946 8.53399 19.1536 8.53399Z" fill="var(--fill-0, #2D2D38)"/>
<path id="Vector_6" d="M5.0314 5.65404H4.03744V9.36509H5.0314V5.65404Z" fill="var(--fill-0, #2D2D38)"/>
<path id="Vector_7" d="M22.6823 5.65404H21.6884V9.36509H22.6823V5.65404Z" fill="var(--fill-0, #2D2D38)"/>
<path id="Vector_8" d="M25.0288 5.53448C24.1598 5.53448 23.6704 5.93795 23.4745 6.1509L24.0937 6.76955C24.0937 6.76955 24.402 6.33784 24.9664 6.33784C25.3771 6.33784 25.7514 6.61803 25.786 7.13268C25.786 7.13268 25.4328 6.95874 24.7974 6.95874C23.7482 6.95874 23.3343 7.60115 23.3343 8.23505C23.3343 9.20922 24.3404 9.48761 25.0288 9.48761C25.7172 9.48761 26.1486 8.99448 26.1486 8.99448L26.6227 9.46744L27.3259 8.76584L26.9534 8.3942C26.8935 8.33372 26.8461 8.26204 26.8139 8.18327C26.7818 8.1045 26.7655 8.02019 26.766 7.93514V7.26851C26.766 5.76715 25.6795 5.53448 25.0288 5.53448ZM25.0288 8.70488C24.6523 8.74971 24.2577 8.57038 24.2577 8.25119C24.2577 7.90376 24.5435 7.74551 25.0288 7.75358C25.2887 7.76043 25.5448 7.81752 25.7828 7.92169C25.759 8.43858 25.3676 8.66498 25.0288 8.70488Z" fill="var(--fill-0, #2D2D38)"/>
<path id="Vector_9" d="M5.03127 3.95297H4.04091V4.92086H5.03127V3.95297Z" fill="var(--fill-0, #2D2D38)"/>
<path id="Vector_10" d="M22.6805 3.95297H21.6901V4.92086H22.6805V3.95297Z" fill="var(--fill-0, #2D2D38)"/>
<path id="Vector_11" d="M19.6942 1.63048V0.913192H17.7045V0.567551L19.8803 0.403472V0L17.297 0.162286V1.63048H17.1132V2.03619H20.0811V1.63048H19.6942ZM17.7032 1.31666H19.288V1.63048H17.7045L17.7032 1.31666Z" fill="var(--fill-0, #2D2D38)"/>
<path id="Vector_12" d="M19.5769 2.89556H18.7999V2.36881L18.3937 2.28766V2.89556H17.6168V2.36881L17.2106 2.28766V3.30127H19.9835V2.36881L19.5769 2.28766V2.89556Z" fill="var(--fill-0, #2D2D38)"/>
<path id="Vector_13" d="M24.9606 1.19023H25.2715V0.784517H24.9606V0.0811304H24.5544V0.784517H24.1621V1.19023H24.5544V1.88107L24.1616 1.95772V2.37106L24.5544 2.2944V2.89557H24.1621V3.30129H24.9606V2.21505L25.3538 2.13794V1.72506L24.9606 1.80172V1.19023Z" fill="var(--fill-0, #2D2D38)"/>
<path id="Vector_14" d="M26.1014 2.58221C25.928 2.73447 25.7374 2.86597 25.5334 2.97403L25.7239 3.33267C25.9643 3.20651 26.1879 3.05078 26.3894 2.86912C26.5918 3.04886 26.8151 3.20374 27.0544 3.33043L27.245 2.97179C27.0405 2.86349 26.8496 2.73152 26.6761 2.57862C27.1789 2.00211 27.3281 1.26868 27.3281 1.26868H26.5925V0.973253H27.3047V0.56978H26.5925V0.0811304H26.1881V0.567539H25.5469V0.973253H26.1858V1.27093H25.6286V1.6744H26.7785C26.6932 1.90467 26.5608 2.11473 26.3898 2.29126C26.1939 2.02721 26.1571 1.82323 26.1571 1.82323H25.6808C25.8021 2.08621 25.9426 2.33989 26.1014 2.58221Z" fill="var(--fill-0, #2D2D38)"/>
<path id="Vector_15" d="M21.9647 1.31665V0.911387H21.4538V0.486396H21.8627V0.0811304L20.5367 0.283763L20.6176 0.486396H21.0471V0.911387H20.5367V1.31665H20.9231L20.4742 2.44996H20.9182L21.0471 2.0429V3.31519H21.4538V2.0429L21.5904 2.45086H22.0344L21.5778 1.31665H21.9647Z" fill="var(--fill-0, #2D2D38)"/>
<path id="Vector_16" d="M22.3606 0.293828L22.0925 0.598337L22.6179 1.05864L22.886 0.754127L22.3606 0.293828Z" fill="var(--fill-0, #2D2D38)"/>
<path id="Vector_17" d="M22.3605 1.22042L22.0924 1.52493L22.6178 1.98523L22.8858 1.68072L22.3605 1.22042Z" fill="var(--fill-0, #2D2D38)"/>
<path id="Vector_18" d="M23.4377 2.09939V0.0811304H23.031V2.17874L22.1409 2.35268V2.76601L23.031 2.59207V3.31519H23.4377V2.51272L23.8749 2.4271V2.01376L23.4377 2.09939Z" fill="var(--fill-0, #2D2D38)"/>
<path id="Vector_19" d="M13.3726 2.17794H14.2093C14.1232 2.31136 14.0265 2.43759 13.9199 2.55541L13.7371 2.39492L13.4674 2.69977L14.3014 3.4296L14.571 3.12521L14.2255 2.8244C14.5908 2.41734 14.7324 2.06721 14.7391 2.05018L14.8483 1.77313H13.3726V2.17794Z" fill="var(--fill-0, #2D2D38)"/>
<path id="Vector_20" d="M13.8188 0.0811304C13.8116 0.108477 13.6184 0.823519 13.1605 1.30724L13.4561 1.58563C13.7347 1.29065 13.9257 0.932905 14.0461 0.651819C14.1873 0.994622 14.3868 1.31053 14.6357 1.58563L14.9314 1.30724C14.4739 0.823519 14.2807 0.108477 14.2731 0.0811304H13.8188Z" fill="var(--fill-0, #2D2D38)"/>
<path id="Vector_21" d="M14.2507 1.22229H13.849V1.62308H14.2507V1.22229Z" fill="var(--fill-0, #2D2D38)"/>
<path id="Vector_22" d="M14.8483 0.0811304V0.484603H15.0883V2.51362C15.088 2.62716 15.1103 2.73963 15.1539 2.84451C15.1974 2.9494 15.2614 3.04462 15.3422 3.12466L15.6068 3.38915L15.8944 3.10224L15.6297 2.83819C15.5869 2.79566 15.5529 2.74508 15.5298 2.68937C15.5066 2.63366 15.4948 2.57392 15.4949 2.51362V2.20339L15.6297 2.3213L15.8994 2.01645L15.4949 1.66409V1.43994H16.0369V2.51362C16.0366 2.62716 16.0589 2.73963 16.1024 2.84451C16.146 2.9494 16.21 3.04462 16.2907 3.12466L16.5554 3.38915L16.843 3.10224L16.5783 2.83819C16.5355 2.79567 16.5015 2.74509 16.4783 2.68938C16.4552 2.63367 16.4434 2.57393 16.4435 2.51362V1.03422H15.4945V0.486396H16.4831V0.0829236L14.8483 0.0811304Z" fill="var(--fill-0, #2D2D38)"/>
</g>
<defs>
<clipPath id="clip0_0_140">
<rect width="27.3281" height="11" fill="white"/>
</clipPath>
</defs>
</svg>
