<svg preserveAspectRatio="none" width="100%" height="100%" overflow="visible" style="display: block;" viewBox="0 0 40 20" fill="none" xmlns="http://www.w3.org/2000/svg">
<g id="image 32 [Vectorized]">
<path id="Vector" d="M5.14746 3.73779C5.27755 3.71798 5.45871 3.73009 5.62793 3.75244C5.80074 3.77527 5.97652 3.81174 6.09766 3.85107C7.94982 4.45264 9.51622 6.153 10.7529 7.53271C10.8537 7.64508 11.0384 7.86275 11.2119 8.07861C11.3438 8.24269 11.4745 8.4142 11.5566 8.5376C12.0899 8.31221 12.7692 8.08525 13.458 7.96143C14.1862 7.83056 14.9407 7.81047 15.5439 8.04053H15.543C16.0521 8.22409 16.6111 8.64514 16.8262 9.18896C17.2653 10.2995 16.8686 11.2404 16.1797 11.978C15.5145 12.6901 14.566 13.2256 13.793 13.5757C13.7456 15.436 12.8491 17.2045 11.083 17.978L10.9072 18.0503C9.43694 18.6129 7.80326 18.5729 6.3623 17.939L6.3584 17.937C5.02448 17.2885 4.07673 16.3692 3.4209 15.019V15.0181C2.72895 13.5799 2.90204 12.2466 3.65527 11.397C4.40819 10.5478 5.71237 10.2136 7.21484 10.7124C8.39014 11.1027 9.06408 12.0674 9.54395 13.1011C9.83679 13.036 10.0205 12.9154 10.1299 12.771C10.2503 12.612 10.2937 12.4073 10.2734 12.1763C10.2322 11.7085 9.93161 11.1706 9.58203 10.8208C8.76468 10.0029 7.67639 9.76259 6.53613 9.9585C6.34292 9.9917 6.16052 10.0327 5.94336 10.0278L5.91602 10.0269L5.8916 10.0151C5.68213 9.91071 5.44348 9.69025 5.29785 9.52783C4.51463 8.65438 3.82079 7.57567 3.50781 6.42529C3.33516 5.79044 3.37642 5.15426 3.65039 4.65576C3.92626 4.15394 4.43026 3.80514 5.14746 3.73779ZM5.16797 4.95264C4.91129 5.00181 4.76269 5.14291 4.68457 5.32471C4.60287 5.51495 4.59504 5.76032 4.64648 6.00732C4.88015 7.12883 5.58201 7.93044 6.32031 8.79932C8.49507 8.34233 10.8308 9.42335 11.4209 11.7183C11.5655 12.281 11.5106 12.8558 11.2637 13.3208C11.0155 13.788 10.5756 14.1373 9.9668 14.2495C9.87426 14.2674 9.78401 14.2804 9.69141 14.2925C9.57508 14.8615 9.29684 15.279 8.89551 15.5317C8.4759 15.7959 7.93991 15.8706 7.35645 15.7729C6.52178 15.6333 5.73703 15.0026 5.27441 14.3433C5.25213 14.3115 5.23049 14.2791 5.21094 14.2456L5.16016 14.1567L5.2373 14.0903C5.44268 13.9149 5.84578 13.5549 6.07617 13.4097L6.16699 13.353L6.23535 13.4351C6.41488 13.6505 6.62514 13.9114 6.86133 14.1206C7.09937 14.3314 7.34372 14.4707 7.58691 14.4722C7.92398 14.4742 8.1424 14.3996 8.27734 14.2925C8.40962 14.1875 8.47617 14.0399 8.48828 13.8628C8.51319 13.4981 8.30247 13.0276 7.98242 12.6792C7.12163 11.7423 5.72739 11.3015 4.69727 12.0884C4.40745 12.3278 4.24617 12.7095 4.2207 13.1011C4.21755 13.1577 4.21639 13.2143 4.2168 13.271L4.22363 13.4429V13.4438C4.28392 14.4496 4.89062 15.42 5.74414 16.1304C6.5975 16.8406 7.67956 17.2764 8.66699 17.23C8.73514 17.2268 8.80485 17.2257 8.87109 17.2251C8.9383 17.2244 9.0028 17.2235 9.06445 17.2202C11.071 17.1122 12.3851 15.644 12.5654 13.6753C12.5755 13.5652 12.5894 13.4154 12.6152 13.2681C12.6406 13.1235 12.6791 12.9684 12.7422 12.8521L12.7461 12.8442L12.751 12.8374C12.8554 12.6955 13.0068 12.5995 13.1504 12.5239C13.2226 12.486 13.2977 12.4511 13.3662 12.4185C13.4359 12.3853 13.4997 12.3543 13.5566 12.3218C13.9878 12.0753 14.5621 11.7517 15.0234 11.3511C15.4875 10.948 15.8102 10.4902 15.7891 9.97998C15.7738 9.61265 15.5607 9.37024 15.2588 9.22607C14.9522 9.07979 14.5627 9.04105 14.2354 9.08936C13.5315 9.19336 12.8632 9.36358 12.1895 9.60498L12.1865 9.60596C11.8484 9.71878 11.6352 9.88082 11.1904 9.84619L11.1602 9.84424L11.1348 9.82861C11.0342 9.7661 10.9292 9.66731 10.8271 9.55615C10.7238 9.44357 10.6171 9.3118 10.5137 9.17822C10.3026 8.90576 10.1097 8.63321 9.96191 8.46533C9.42182 7.8518 8.64481 6.94193 7.7832 6.19873C7.3528 5.82749 6.90512 5.50092 6.45898 5.2749C6.01463 5.04982 5.57892 4.92711 5.16797 4.95264ZM15.2939 5.25928L15.3066 5.26123L15.3477 5.26514L15.377 5.29248C15.4034 5.31652 15.4256 5.35211 15.4414 5.37939C15.4596 5.41094 15.4797 5.44944 15.5 5.4917C15.541 5.57688 15.5874 5.68367 15.6318 5.79053C15.7205 6.00358 15.8055 6.22685 15.8311 6.30322L15.8691 6.41846L15.7549 6.45752C15.4883 6.54866 15.1694 6.69885 14.8838 6.81104C14.6901 6.88708 14.3191 7.03029 14.167 7.11475L14.1064 7.14795L14.0459 7.11377C14.0115 7.0939 13.9836 7.0621 13.9639 7.0376C13.9418 7.01017 13.9187 6.97707 13.8965 6.94189C13.8518 6.87116 13.8031 6.78316 13.7568 6.69482C13.6662 6.52163 13.5733 6.3247 13.5371 6.25342L13.4863 6.15283L13.582 6.09424C13.657 6.04813 13.7618 5.98939 13.8457 5.95166C14.0717 5.85013 14.2996 5.72967 14.5322 5.60889C14.7633 5.4889 14.9993 5.36861 15.2354 5.26904L15.2637 5.25635L15.2939 5.25928ZM10.3232 3.33643L10.3535 3.34229L10.3848 3.34814L10.4102 3.36865C10.4323 3.3872 10.4486 3.41319 10.4561 3.42529C10.4665 3.44229 10.4775 3.46314 10.4893 3.48584C10.5131 3.53188 10.5423 3.59279 10.5742 3.6626C10.6382 3.80269 10.7166 3.985 10.7949 4.17041C10.9514 4.5409 11.1108 4.93255 11.1533 5.03467L11.1934 5.13037L11.1045 5.18506C11.0427 5.22344 10.8526 5.3275 10.666 5.41846C10.5723 5.46412 10.4768 5.50841 10.3965 5.53955C10.3566 5.55502 10.3174 5.56789 10.2832 5.57666C10.2662 5.58101 10.2483 5.58541 10.2305 5.5874C10.2141 5.58924 10.1899 5.59037 10.1641 5.58447L10.1133 5.57275L10.0859 5.52783C9.87588 5.17592 9.44439 4.26155 9.26953 3.89014L9.21094 3.76514L9.34082 3.72217C9.524 3.66118 10.0677 3.43155 10.249 3.34619L10.2842 3.32959L10.3232 3.33643ZM12.8848 3.04346C13.188 3.18681 13.5241 3.3255 13.8389 3.4624L13.959 3.51514L13.8984 3.63135C13.8608 3.70306 13.8141 3.81336 13.7676 3.92822L13.6367 4.25244C13.465 4.67094 13.2848 5.08617 13.0967 5.49756L13.083 5.52783L13.0557 5.54736C13.0071 5.58104 12.9491 5.5812 12.916 5.57959C12.8764 5.57763 12.8324 5.56949 12.7891 5.55908C12.7015 5.53803 12.5971 5.50328 12.4961 5.46533C12.2955 5.38995 12.0847 5.29534 12.0186 5.26807L11.9082 5.22217L11.9502 5.11182C12.1994 4.45521 12.4502 3.7576 12.7197 3.10693L12.7686 2.98877L12.8848 3.04346Z" fill="var(--fill-0, white)" stroke="var(--stroke-0, white)" stroke-width="0.244369"/>
<path id="Subtract" d="M36.0689 5.7041C36.1758 5.70416 36.2449 5.73861 36.274 5.80664C36.3029 5.86489 36.2882 5.93814 36.2301 6.02539L34.1432 9.11816C34.2793 9.09874 34.4212 9.08887 34.567 9.08887C35.2474 9.08898 35.8457 9.24958 36.3609 9.57031C36.886 9.88153 37.2997 10.3149 37.6012 10.8691C37.9026 11.4137 38.0533 12.046 38.0533 12.7656C38.0533 13.5242 37.8731 14.1957 37.5133 14.7793C37.1535 15.3529 36.6529 15.8051 36.0113 16.1357C35.3695 16.4567 34.62 16.6181 33.7643 16.6182C32.9084 16.6182 32.1542 16.4428 31.5025 16.0928C30.8606 15.7426 30.3546 15.27 29.985 14.6768C29.6253 14.0739 29.4459 13.403 29.4459 12.6641C29.4459 12.2264 29.5138 11.7784 29.65 11.3213C29.7861 10.8643 30 10.3539 30.2916 9.79004C30.4799 9.43173 30.7083 9.03171 30.9762 8.58984L32.565 9.01562L31.6598 7.5L32.6988 5.87988C32.7766 5.76325 32.884 5.7041 33.0201 5.7041H36.0689ZM24.3854 5.5C25.1536 5.50004 25.8252 5.64574 26.399 5.9375C26.9726 6.2195 27.4199 6.61856 27.7408 7.13379C28.0715 7.63952 28.2369 8.23329 28.2369 8.91406C28.2369 9.42953 28.1493 9.91593 27.9742 10.373C27.8089 10.83 27.532 11.2921 27.1432 11.7588C26.7541 12.2256 26.2234 12.7366 25.5523 13.291H28.2223C28.3972 13.2911 28.4849 13.3787 28.485 13.5537V16.1504C28.485 16.3254 28.3972 16.413 28.2223 16.4131H28.1793L26.5025 15.4297L26.775 16.4131H20.7379C20.5628 16.4131 20.4752 16.3255 20.4752 16.1504V15.3193C20.4752 15.193 20.5186 15.0856 20.6061 14.998L23.4078 11.8906C23.9621 11.2877 24.3511 10.7865 24.5748 10.3877C24.8081 9.98913 24.9253 9.6245 24.9254 9.29395C24.9254 9.07046 24.8522 8.89003 24.7066 8.75391C24.5705 8.6178 24.3852 8.54987 24.152 8.5498C23.6656 8.5498 23.3004 8.8708 23.0572 9.5127C22.9989 9.67756 22.8872 9.73585 22.7223 9.6875L20.402 9.05957C20.2273 9.0109 20.164 8.90437 20.2125 8.73926C20.4751 7.73753 20.9763 6.94982 21.7154 6.37598C22.4643 5.79247 23.3544 5.5 24.3854 5.5ZM33.7496 11.3213C33.419 11.3213 33.1413 11.4336 32.9176 11.6572C32.7038 11.8809 32.5973 12.1775 32.5973 12.5469C32.5973 12.9068 32.7036 13.2041 32.9176 13.4375C33.1413 13.6611 33.419 13.7725 33.7496 13.7725C34.0899 13.7724 34.3677 13.6611 34.5816 13.4375C34.7955 13.2041 34.902 12.9067 34.902 12.5469C34.9019 12.1776 34.7953 11.8808 34.5816 11.6572C34.3677 11.4336 34.0899 11.3214 33.7496 11.3213Z" fill="var(--fill-0, white)"/>
</g>
</svg>
