<svg width="100%" height="100%" overflow="visible" style="display: block;" viewBox="0 0 290.007 140.484" fill="none" xmlns="http://www.w3.org/2000/svg">
<path id="Union" d="M124.375 49.5654H133.978V101.143C133.978 104.447 133.668 107.08 133.049 109.042C132.533 110.901 131.551 112.397 130.105 113.533C128.763 114.566 126.956 115.34 124.685 115.856C122.516 116.373 119.78 116.838 116.476 117.251L107.337 118.49L103 105.479L111.364 104.55C113.016 104.343 114.307 104.034 115.236 103.621C116.166 103.208 116.837 102.692 117.25 102.072C117.663 101.349 117.869 100.523 117.869 99.5938C117.972 98.5612 118.024 97.3736 118.024 96.0312V63.8145H63.3486V116.631H49.2539C52.2484 118.18 55.76 119.367 59.7871 120.193C63.8141 121.019 68.3575 121.536 73.417 121.742C96.7533 122.981 120.09 122.981 143.426 121.742L140.019 137.076C116.785 138.315 93.6035 138.315 70.4736 137.076C65.2076 136.766 60.5092 136.354 56.3789 135.838C52.2488 135.322 48.5317 134.495 45.2275 133.359C41.9233 132.327 38.8768 130.881 36.0889 129.022C33.4042 127.267 30.9259 124.944 28.6543 122.053C27.4152 123.292 25.8663 124.686 24.0078 126.234C22.2525 127.886 20.3935 129.538 18.4316 131.19C16.573 132.843 14.7141 134.443 12.8555 135.992C11.1001 137.644 9.65439 139.142 8.51855 140.484L0 120.193L19.6709 105.17V68.1514H6.19531V49.4102H37.9473V105.17C39.9092 109.61 43.0587 113.121 47.3955 115.702V49.5654H57.4629V4.95703H124.375V49.5654ZM201.876 49.2539C200.224 52.2484 198.416 55.2948 196.454 58.3926C194.492 61.4903 192.324 64.6399 189.949 67.8408V138.16H171.362V90.4541C167.439 94.6877 163.567 98.5605 159.746 102.071L149.988 84.1045C152.466 81.8329 155.409 78.8893 158.816 75.2754C162.327 71.5581 165.787 67.6342 169.194 63.5039C172.705 59.2703 176.01 55.0363 179.107 50.8027C182.308 46.4661 184.838 42.4908 186.696 38.877L201.876 49.2539ZM252.679 23.2334H284.74V41.9746H250.975V67.2217H280.094V86.2725H250.975V116.32H290.007V135.062H193.512V116.32H231.924V86.2725H202.34V67.2217H231.924V41.9746H200.017V23.2334H232.543L228.517 3.87207L248.807 2.94238L252.679 23.2334ZM112.139 101.143H69.5449V69.0811H112.139V101.143ZM83.7939 89.8359H97.5791V81.0068H83.7939V89.8359ZM203.115 12.2363C201.05 15.2308 198.468 18.5354 195.37 22.1494C192.376 25.7633 189.123 29.4804 185.612 33.3008C182.205 37.0181 178.642 40.6838 174.925 44.2979C171.311 47.9118 167.903 51.1645 164.702 54.0557L155.255 37.1729C158.043 34.798 160.985 32.0103 164.083 28.8096C167.181 25.6086 170.175 22.304 173.066 18.8965C176.061 15.3858 178.797 11.978 181.275 8.67383C183.857 5.36956 185.974 2.4782 187.626 0L203.115 12.2363ZM72.6426 49.5654H85.498V40.7363H72.6426V49.5654ZM72.6426 25.8672H100.986V49.5654H108.886V20.1367H72.6426V25.8672ZM24.1621 2.32422C25.6077 3.97636 27.3115 5.99029 29.2734 8.36523C31.2353 10.6368 33.2494 13.0112 35.3145 15.4893C37.3796 17.9675 39.3415 20.3946 41.2002 22.7695C43.1621 25.1444 44.8659 27.2615 46.3115 29.1201L31.9072 41.8203C30.7714 40.0649 29.2737 37.9479 27.415 35.4697C25.5565 32.9917 23.5944 30.4622 21.5293 27.8809C19.5674 25.2994 17.6054 22.8212 15.6436 20.4463C13.7849 17.9681 12.1841 15.9031 10.8418 14.251L24.1621 2.32422Z" fill="var(--fill-0, #F9FFE6)"/>
</svg>
