<svg width="100%" height="100%" overflow="visible" style="display: block;" viewBox="0 0 289.388 144.821" fill="none" xmlns="http://www.w3.org/2000/svg">
<path id="Union" d="M92.4678 6.50586C91.745 9.50021 91.0226 12.4949 90.2998 15.4893C89.577 18.3804 88.8026 21.1688 87.9766 23.8535H133.358V43.6797H123.91C122.258 55.4508 120.09 65.9313 117.405 75.1211C114.721 84.311 110.9 92.8301 105.943 100.678C110.383 105.324 115.34 109.868 120.812 114.308C126.285 118.644 132.429 122.982 139.244 127.318L126.853 144.201C120.451 139.555 114.566 134.908 109.196 130.262C103.93 125.615 99.0768 120.813 94.6367 115.856C90.2999 120.813 85.2395 125.615 79.457 130.262C73.7779 135.011 67.2215 139.865 59.7871 144.821L51.2676 131.036V139.71H32.2168V103.156C27.9832 105.428 23.8523 107.493 19.8252 109.352C15.9015 111.107 11.9774 112.914 8.05371 114.772L0 96.4961C1.65212 95.3603 2.6326 94.2757 2.94238 93.2432C3.35539 92.2107 3.56247 90.7137 3.5625 88.752V20.6006L22.1494 21.375V87.0479C23.8014 86.5316 25.4535 85.9122 27.1055 85.1895C28.7576 84.4666 30.4614 83.6923 32.2168 82.8662V3.87305L51.2676 4.64746V55.1406C53.5392 51.9396 55.7083 48.584 57.7734 45.0732C59.8385 41.4593 61.8006 37.5873 63.6592 33.457C65.5178 29.2234 67.2216 24.5763 68.7705 19.5166C70.4226 14.3537 71.9194 8.62287 73.2617 2.32422L92.4678 6.50586ZM235.642 2.16797L233.938 10.5322H276.377L269.872 53.5908H283.037V69.8545H251.75V74.6562C252.473 76.5148 253.247 78.3218 254.073 80.0771C254.899 81.8325 255.726 83.4844 256.552 85.0332L263.677 77.9082C266.052 75.4301 268.272 72.8487 270.337 70.1641L282.263 81.1611C280.198 83.2263 277.616 85.8076 274.519 88.9053C271.524 92.003 268.53 94.9975 265.535 97.8887C268.839 101.709 272.453 105.272 276.377 108.576C280.404 111.777 284.741 114.927 289.388 118.024L280.869 134.442C274.983 129.796 269.614 125.098 264.761 120.348C259.908 115.598 255.571 110.435 251.75 104.859V122.671C251.75 126.182 251.441 129.073 250.821 131.345C250.305 133.616 249.375 135.423 248.033 136.766C246.794 138.108 245.038 139.089 242.767 139.709C240.598 140.432 237.811 140.948 234.403 141.258L225.729 142.187L220.308 125.304L228.518 124.375C230.376 124.169 231.821 123.961 232.854 123.755C233.989 123.548 234.816 123.187 235.332 122.671C235.952 122.155 236.365 121.483 236.571 120.657C236.778 119.728 236.881 118.54 236.881 117.095V106.253L213.028 125.459L203.271 109.815C204.716 108.989 207.091 107.441 210.396 105.169C213.7 102.794 217.262 100.213 221.083 97.4248C220.154 96.0825 219.069 94.6366 217.83 93.0879C216.591 91.4358 215.3 89.8349 213.958 88.2861C212.719 86.634 211.479 85.0852 210.24 83.6396C209.104 82.194 208.072 80.9545 207.143 79.9219L218.295 69.8545H207.298V53.5908H254.229L255.003 48.1699H209.931L219.998 0.619141L235.642 2.16797ZM190.88 4.80176L188.866 9.60352C192.377 13.0109 195.991 16.5729 199.708 20.29C203.529 24.0073 207.039 27.467 210.24 30.668L200.792 40.7354V55.9141H187.162V64.4336H204.2V80.2314H187.162V104.239C188.608 100.315 190.001 96.3915 191.344 92.4678C192.789 88.544 194.08 84.9813 195.216 81.7803L207.607 85.9629C206.988 87.8214 206.264 89.8346 205.438 92.0029C204.716 94.1713 203.941 96.3915 203.115 98.6631C202.289 100.832 201.464 103.001 200.638 105.169C199.812 107.337 199.037 109.299 198.314 111.055L187.162 106.562V114.462L203.58 111.52L204.045 120.348L204.819 129.331C203.167 129.538 200.947 129.848 198.159 130.261C195.371 130.777 192.274 131.344 188.866 131.964C185.459 132.583 181.896 133.204 178.179 133.823C174.565 134.546 171.054 135.217 167.646 135.837C164.239 136.456 161.089 137.024 158.198 137.54C155.41 138.16 153.19 138.625 151.538 138.935L149.68 120.968C151.538 120.658 154.429 120.193 158.353 119.573C162.276 118.85 166.562 118.076 171.209 117.25V110.125L159.747 114.771C159.128 112.81 158.404 110.641 157.578 108.267C156.752 105.892 155.875 103.465 154.945 100.986C154.119 98.5083 153.242 96.0818 152.312 93.707C151.486 91.3322 150.712 89.164 149.989 87.2021L162.535 82.0908C163.981 85.7048 165.427 89.6288 166.872 93.8623C168.421 97.9925 169.867 101.865 171.209 105.479V80.2314H152.467V64.4336H171.209V55.9141H160.831V51.5771C159.902 52.6097 158.972 53.6432 158.043 54.6758C157.217 55.6049 156.339 56.5338 155.41 57.4629L143.639 45.0723C146.22 42.2843 149.008 38.9797 152.003 35.1592C155.101 31.3387 158.095 27.4147 160.986 23.3877C163.877 19.2575 166.511 15.1793 168.886 11.1523C171.364 7.12526 173.274 3.40753 174.616 0L190.88 4.80176ZM51.2676 125.305C58.0826 121.071 64.0204 116.993 69.0801 113.069C74.2429 109.042 78.7862 104.86 82.71 100.523C79.1992 95.4638 76.1527 90.1973 73.5713 84.7246C70.9899 79.252 68.7698 73.5212 66.9111 67.5322C65.0526 70.1136 63.1425 72.4889 61.1807 74.6572L51.2676 65.9834V125.305ZM218.604 69.8545C219.534 71.0935 220.618 72.4873 221.857 74.0361C223.096 75.585 224.387 77.1858 225.729 78.8379C227.072 80.4899 228.363 82.1419 229.602 83.7939C230.944 85.4459 232.183 86.9949 233.318 88.4404L232.854 88.9053C233.576 88.2859 234.248 87.7184 234.867 87.2021C235.59 86.6859 236.261 86.1695 236.881 85.6533V69.8545H218.604ZM80.542 43.6797C80.2322 44.5057 79.819 45.3833 79.3027 46.3125C81.8842 60.9751 86.6855 73.8823 93.707 85.0342C96.908 79.1485 99.3862 72.8495 101.142 66.1377C102.897 59.4261 104.291 51.9401 105.323 43.6797H80.542ZM180.812 24.7822C179.159 27.3636 177.456 29.945 175.7 32.5264C173.945 35.1078 172.138 37.586 170.279 39.9609H195.216C192.841 37.4828 190.415 34.9525 187.937 32.3711C185.562 29.7897 183.186 27.2603 180.812 24.7822ZM229.602 32.6816H257.326L258.256 26.3311H230.841L229.602 32.6816Z" fill="var(--fill-0, #F9FFE6)"/>
</svg>
