<svg width="100%" height="100%" overflow="visible" style="display: block;" viewBox="0 0 577.75 142.497" fill="none" xmlns="http://www.w3.org/2000/svg">
<path id="Union" d="M119.108 32.9912C119.108 34.9531 119.419 36.2957 120.038 37.0186C120.761 37.7412 122.207 38.1025 124.375 38.1025H134.442L130.88 56.999H116.32C111.158 56.999 107.286 55.9664 104.704 53.9014C102.226 51.7329 100.986 47.8601 100.986 42.2842V23.6982H84.5684V30.2031C84.5684 33.7139 84.2592 36.9154 83.6396 39.8066C83.0201 42.5943 81.9874 45.2271 80.542 47.7051C79.1996 50.08 77.4438 52.4041 75.2754 54.6758C73.2103 56.9474 70.732 59.3226 67.8408 61.8008H127.008V79.457C124.943 85.1361 122.258 90.5059 118.954 95.5654C115.65 100.522 111.622 105.375 106.872 110.125C111.312 112.81 116.269 115.34 121.742 117.715C127.215 119.986 133.359 122.31 140.174 124.685L130.415 142.497C123.084 139.296 116.269 136.043 109.971 132.739C103.672 129.538 97.8372 126.079 92.4678 122.361C83.1745 129.176 71.9192 135.889 58.7021 142.497L53.4365 133.514V137.076H5.73047V85.1885H53.4365V123.445C58.1863 121.174 62.5746 118.954 66.6016 116.785C70.6285 114.514 74.3975 112.242 77.9082 109.971C74.604 106.563 71.6095 102.897 68.9248 98.9736C66.2401 95.0499 63.8649 90.7647 61.7998 86.1182L76.2051 79.457H57.4629V61.8008H66.1367L53.9014 50.6484C56.9989 48.3769 59.3733 46.2597 61.0254 44.2979C62.7807 42.2327 64.0714 40.1676 64.8975 38.1025C65.8267 36.0375 66.344 33.8692 66.4473 31.5977C66.6538 29.2227 66.7568 26.6405 66.7568 23.8525V5.2666H119.108V32.9912ZM257.637 1.85938V48.4805H287.065V67.5312H257.637V139.864H238.585V67.5312H213.958V48.4805H238.585V1.08496L257.637 1.85938ZM384.084 5.4209C382.535 9.96413 380.676 14.7657 378.508 19.8252H431.789V39.3418H389.04V55.6045H423.89V75.1201H389.04V91.0742H427.297V110.745H389.04V139.709H369.369V39.3418H369.06C366.272 44.5047 363.07 49.8743 359.456 55.4502C355.842 60.9228 351.712 66.6537 347.065 72.6426L335.139 61.9551V138.47H315.313V68.9248C313.868 71.0932 312.37 73.2622 310.821 75.4307C309.273 77.4957 307.673 79.561 306.021 81.626L292.545 67.6855C301.425 56.9468 308.757 45.7953 314.539 34.2305C320.321 22.5624 324.71 11.565 327.704 1.23926L345.981 7.2793C344.742 10.7901 343.194 14.818 341.335 19.3613C339.58 23.8014 337.514 28.6028 335.139 33.7656V56.0693C342.676 46.6729 348.82 37.4314 353.57 28.3447C358.32 19.1547 362.193 9.7063 365.188 0L384.084 5.4209ZM210.241 138.315H157.27V85.1885H210.241V138.315ZM511.458 135.218H454.305V70.9395H511.458V135.218ZM577.75 135.218H520.441V70.9395H577.75V135.218ZM173.997 121.433H193.358V101.762H173.997V121.433ZM22.3037 120.348H37.1729V101.916H22.3037V120.348ZM472.892 117.251H493.182V88.752H472.892V117.251ZM539.338 117.251H559.474V88.752H539.338V117.251ZM79.3027 79.457C82.2972 86.9948 86.5823 93.552 92.1582 99.1279C99.1797 92.726 104.239 86.1688 107.337 79.457H79.3027ZM51.2676 79.9219H8.20898V63.6592H51.2676V79.9219ZM207.763 79.3027H159.283V62.8848H207.763V79.3027ZM561.951 60.7168H469.329V4.80273H561.951V60.7168ZM51.2676 58.3926H8.20898V41.9746H51.2676V58.3926ZM207.763 56.999H159.283V40.5811H207.763V56.999ZM489.464 42.4404H542.281V22.9248H489.464V42.4404ZM39.9609 19.6709H59.4766V36.3984H0V19.6709H21.9941L18.4316 2.78809L36.5537 2.01367L39.9609 19.6709ZM193.358 17.5029H216.746V34.54H150.145V17.5029H174.307L171.055 1.7041L190.261 0.929688L193.358 17.5029Z" fill="var(--fill-0, #F9FFE6)"/>
</svg>
